<svg width="158" height="157" viewBox="0 0 158 157" fill="none" xmlns="http://www.w3.org/2000/svg">
<rect width="158" height="157" rx="78.5" fill="url(#paint0_linear_29_3593)"/>
<path d="M83.0327 54.603L99.9741 64.6387C100.166 64.7535 100.278 64.9585 100.278 65.1798L100.31 85.6121C100.31 85.8335 100.43 86.0384 100.614 86.1532L110.476 92.0156C110.884 92.2534 111.388 91.9582 111.388 91.4745L111.332 58.5795C111.332 58.3582 111.212 58.1532 111.028 58.0384L83.6006 41.7877C83.1926 41.5499 82.6887 41.8533 82.6887 42.3289L82.7287 54.0536C82.7287 54.2832 82.8487 54.4882 83.0327 54.603Z" fill="white"/>
<path d="M78.9536 83.9312L78.9456 78.077C78.9456 77.8557 78.8256 77.6507 78.6417 77.5359L73.7144 74.617C73.5224 74.5022 73.2985 74.5022 73.1065 74.617L63.9079 80.1104C63.516 80.3482 63.5 80.9303 63.8919 81.1845L68.0353 83.882C68.2113 83.9968 68.3152 84.1936 68.3152 84.4068L68.3312 89.5558C68.3312 90.0396 68.8432 90.3347 69.2431 90.097L78.6497 84.4724C78.8416 84.3576 78.9536 84.1526 78.9536 83.9312Z" fill="white"/>
<path d="M96.8548 91.95L79.7695 102.15C79.5855 102.265 79.3535 102.265 79.1616 102.15L58.8127 90.097C58.6207 89.9823 58.5087 89.7773 58.5087 89.5559L58.4687 65.3684C58.4687 65.1471 58.5807 64.9339 58.7727 64.8273L76.106 54.48C76.298 54.3652 76.41 54.1602 76.41 53.9388L76.37 42.2305C76.37 41.7467 75.8581 41.4516 75.4581 41.6893L47.7024 58.2598C47.5184 58.3746 47.3984 58.5796 47.3984 58.8009L47.4624 96.148C47.4624 96.3694 47.5824 96.5744 47.7664 96.6891L79.1856 115.309C79.3775 115.424 79.6015 115.424 79.7935 115.309L107.301 98.8865C107.709 98.6487 107.701 98.042 107.301 97.8042L97.4628 91.95C97.2788 91.8353 97.0468 91.8353 96.8548 91.95Z" fill="white"/>
<defs>
<linearGradient id="paint0_linear_29_3593" x1="158" y1="-1.21952e-05" x2="-32.1522" y2="71.5407" gradientUnits="userSpaceOnUse">
<stop stop-color="#3C9EF5"/>
<stop offset="1" stop-color="#6DE49D"/>
</linearGradient>
</defs>
</svg>
