<svg width="105" height="105" viewBox="0 0 105 105" fill="none" xmlns="http://www.w3.org/2000/svg">
<rect x="0.203125" y="0.155273" width="104" height="104" rx="8" fill="#2A2842"/>
<path d="M68.7753 48.3986L71.2487 45.9253C73.0687 44.1053 73.0687 41.1419 71.2487 39.3219L67.9587 36.0319C66.1387 34.2119 63.1753 34.2119 61.3553 36.0319L58.882 38.5053L68.7753 48.3986ZM58.882 51.7119L42.082 68.4886H38.792V65.1986L55.5687 48.4219L58.882 51.7119ZM55.5687 41.7953L34.1253 63.2619V73.1553H44.0187L65.462 51.7119L55.5687 41.7953ZM69.1253 64.9886C69.1253 70.0986 63.1987 73.1553 57.4587 73.1553C56.1753 73.1553 55.1253 72.1053 55.1253 70.8219C55.1253 69.5386 56.1753 68.4886 57.4587 68.4886C61.052 68.4886 64.4587 66.7853 64.4587 64.9886C64.4587 63.8919 63.3387 62.9586 61.5887 62.1886L65.042 58.7353C67.5387 60.2053 69.1253 62.1653 69.1253 64.9886ZM35.4787 55.3053C33.2153 53.9986 31.792 52.2953 31.792 49.8219C31.792 45.6219 36.202 43.6853 40.0987 41.9819C42.502 40.9086 45.792 39.4619 45.792 38.1553C45.792 37.1986 43.972 35.8219 41.1253 35.8219C38.1853 35.8219 36.9253 37.2453 36.8553 37.3153C36.0387 38.2719 34.5687 38.3886 33.5887 37.5953C32.632 36.8019 32.4453 35.3786 33.2387 34.3753C33.4953 34.0486 35.8987 31.1553 41.1253 31.1553C46.352 31.1553 50.4587 34.2353 50.4587 38.1553C50.4587 42.5186 45.9553 44.5019 41.9653 46.2519C39.772 47.2086 36.4587 48.6553 36.4587 49.8219C36.4587 50.5453 37.462 51.2219 38.9553 51.8286L35.4787 55.3053Z" fill="#7B18C9"/>
</svg>
