<svg width="18" height="18" viewBox="0 0 18 18" fill="none" xmlns="http://www.w3.org/2000/svg">
<path d="M12 15.5C9.49 15.5 7.32 14.08 6.24 12H11C11.55 12 12 11.55 12 11C12 10.45 11.55 10 11 10H5.58C5.53 9.67 5.5 9.34 5.5 9C5.5 8.66 5.53 8.33 5.58 8H11C11.55 8 12 7.55 12 7C12 6.45 11.55 6 11 6H6.24C7.32 3.92 9.5 2.5 12 2.5C13.25 2.5 14.42 2.86 15.42 3.47C15.92 3.78 16.57 3.73 16.99 3.31C17.57 2.73 17.44 1.78 16.74 1.35C15.36 0.5 13.73 0 12 0C8.08 0 4.76 2.51 3.52 6H1C0.45 6 0 6.45 0 7C0 7.55 0.45 8 1 8H3.06C3.02 8.33 3 8.66 3 9C3 9.34 3.02 9.67 3.06 10H1C0.45 10 0 10.45 0 11C0 11.55 0.45 12 1 12H3.52C4.76 15.49 8.08 18 12 18C13.74 18 15.36 17.51 16.74 16.65C17.43 16.22 17.56 15.26 16.98 14.68C16.56 14.26 15.91 14.21 15.41 14.53C14.42 15.15 13.26 15.5 12 15.5Z" fill="#6A80E4"/>
</svg>
