<svg width="274" height="274" viewBox="0 0 274 274" fill="none" xmlns="http://www.w3.org/2000/svg">
<rect x="5" y="5" width="264" height="264" rx="132" fill="#F4F6FF"/>
<g clip-path="url(#clip0_93_2927)">
<path fill-rule="evenodd" clip-rule="evenodd" d="M186.234 135.348H181.723V117.642H185.969V119.624C186.5 118.435 187.827 117.377 189.552 117.245C192.471 117.113 194.462 118.831 194.462 122.531V135.348H189.817V122.003C189.817 120.417 189.817 119.096 188.756 118.831C188.358 118.699 187.694 118.831 187.163 119.227C186.5 119.888 186.234 120.681 186.234 122.003C186.234 122.267 186.234 135.348 186.234 135.348Z" fill="#64A8F0"/>
<path fill-rule="evenodd" clip-rule="evenodd" d="M109.537 118.83C108.476 117.905 107.148 117.244 105.556 117.244C103.964 117.244 102.77 117.905 101.575 118.83C99.7171 120.416 98.5234 123.323 98.5234 126.494C98.5234 129.797 99.7171 132.572 101.575 134.158C102.77 135.083 103.964 135.744 105.556 135.744C107.148 135.744 108.476 135.083 109.537 134.158C111.528 132.572 112.589 129.797 112.589 126.494C112.589 123.323 111.528 120.416 109.537 118.83ZM107.812 126.494C107.812 129.797 107.812 132.441 107.281 133.762C106.883 134.422 106.484 134.819 105.556 134.819C104.76 134.819 104.23 134.422 103.964 133.762C103.3 132.441 103.3 129.797 103.3 126.494C103.3 123.323 103.3 120.548 103.964 119.226C104.23 118.565 104.76 118.169 105.556 118.169C106.484 118.169 106.883 118.565 107.281 119.226C107.945 120.548 107.812 123.323 107.812 126.494Z" fill="#64A8F0"/>
<path fill-rule="evenodd" clip-rule="evenodd" d="M155.846 142.088V146.845H154.918C154.387 144.863 153.591 143.145 151.468 143.013C150.141 142.881 148.946 143.674 148.813 144.863C148.681 146.052 149.079 147.109 151.468 148.431C154.52 150.148 156.908 150.941 156.908 154.509C156.908 158.341 153.591 160.192 150.804 160.192C149.61 160.192 145.496 160.192 145.496 160.192V153.584H146.425C147.089 157.02 148.151 159.134 150.672 159.266C152.264 159.266 153.458 158.341 153.458 156.624C153.458 154.906 152.396 153.848 149.875 152.394C147.089 150.677 145.363 149.62 145.363 147.241C145.363 144.069 147.62 142.088 151.202 142.088C152.396 142.088 155.846 142.088 155.846 142.088Z" fill="#64A8F0"/>
<path fill-rule="evenodd" clip-rule="evenodd" d="M161.685 135.347V122.53C161.685 118.83 159.694 117.113 156.775 117.245C154.784 117.376 153.59 118.699 153.059 119.755C152.396 117.906 150.936 117.113 148.813 117.245C147.089 117.376 145.761 118.434 145.23 119.623V117.641H141.117V135.347H145.628C145.628 135.347 145.628 122.399 145.628 122.002C145.628 120.68 145.761 119.887 146.557 119.226C147.089 118.83 147.62 118.699 148.017 118.83C149.078 119.095 149.078 120.416 149.078 122.002V135.347H153.59V121.87C153.59 120.68 153.855 119.887 154.519 119.226C155.05 118.83 155.581 118.699 155.979 118.83C157.04 119.095 157.173 120.416 157.173 122.002V135.347H161.685Z" fill="#64A8F0"/>
<path fill-rule="evenodd" clip-rule="evenodd" d="M115.641 113.941H120.285V135.348H115.641V113.941Z" fill="#64A8F0"/>
<path fill-rule="evenodd" clip-rule="evenodd" d="M136.741 135.348V113.941H132.096V118.963C131.698 118.038 130.769 117.377 129.442 117.377C126.125 117.377 123.47 120.812 123.338 126.098C123.205 129.666 124.4 135.612 129.044 135.612C130.901 135.612 131.963 134.556 132.361 133.63V135.348H136.741ZM131.3 119.095C132.229 120.417 132.229 123.588 132.229 126.098C132.229 128.741 132.361 132.177 131.3 133.63C130.901 134.159 130.504 134.423 129.84 134.423C128.912 134.423 128.38 133.366 128.115 131.649C127.982 130.063 127.982 128.08 127.982 125.966C127.982 122.399 128.248 118.434 129.973 118.434C130.637 118.434 130.901 118.699 131.3 119.095Z" fill="#64A8F0"/>
<path fill-rule="evenodd" clip-rule="evenodd" d="M175.487 118.169C176.681 118.83 177.477 119.887 177.477 122.265V135.347H173.098V133.366C172.568 134.819 171.108 135.744 169.117 135.744C167.525 135.744 164.738 134.951 164.738 130.855C164.738 127.022 167.26 126.23 170.047 125.041C172.568 123.984 172.833 123.851 172.833 122.794C172.833 121.87 172.833 121.076 172.833 119.887C172.833 118.698 172.17 118.169 170.842 118.169C170.312 118.301 169.383 118.565 169.383 119.226C169.25 120.019 170.178 120.019 170.312 121.209C170.444 123.058 168.985 123.719 167.658 123.587C166.729 123.587 165.667 123.058 165.535 121.605C165.402 119.226 168.056 117.244 171.771 117.244C173.497 117.244 174.558 117.641 175.487 118.169ZM172.833 124.776L171.373 125.701C169.914 126.626 169.648 127.815 169.515 129.137C169.383 130.194 169.383 131.119 169.515 132.705C169.648 134.158 170.577 134.422 171.373 134.158C172.303 133.762 172.833 132.044 172.833 130.194C172.833 130.194 172.833 125.437 172.833 124.776Z" fill="#64A8F0"/>
<path fill-rule="evenodd" clip-rule="evenodd" d="M109.804 142.881C110.998 143.674 111.661 144.599 111.661 146.977V160.192H107.415V158.209C106.885 159.531 105.425 160.455 103.434 160.455C101.709 160.455 99.0547 159.794 99.0547 155.699C99.0547 151.867 101.577 151.074 104.231 149.884C106.885 148.695 107.15 148.563 107.15 147.638C107.15 146.713 107.15 145.92 107.15 144.73C107.15 143.409 106.486 142.881 105.16 143.013C104.628 143.013 103.7 143.277 103.7 143.938C103.567 144.863 104.496 144.863 104.628 146.052C104.762 147.77 103.302 148.431 101.975 148.431C101.046 148.299 99.9842 147.77 99.851 146.316C99.7185 144.069 102.373 142.088 106.088 142.088C107.813 142.088 108.875 142.352 109.804 142.881ZM107.15 149.488L105.69 150.413C104.231 151.338 103.965 152.527 103.832 153.848C103.7 154.906 103.7 155.962 103.832 157.416C103.832 159.002 104.762 159.266 105.557 158.87C106.619 158.473 107.15 156.888 107.15 154.906C107.15 154.906 107.15 150.148 107.15 149.488Z" fill="#64A8F0"/>
<path fill-rule="evenodd" clip-rule="evenodd" d="M141.913 147.374C141.913 143.674 139.923 141.823 137.004 142.088C135.544 142.22 134.35 142.881 133.686 143.806V138.652H129.174V150.809C129.174 155.302 125.99 159.531 122.805 159.398C120.549 159.398 120.018 157.68 119.753 155.831C119.355 153.187 119.355 150.148 119.62 146.845C119.886 144.73 120.416 143.013 122.009 143.013C123.203 143.013 123.336 143.806 122.805 144.334C122.274 144.995 121.478 145.655 121.876 147.109C122.274 148.695 124.795 148.959 125.99 147.77C126.919 146.713 126.786 144.995 126.123 143.937C125.326 142.616 124 142.088 122.009 142.088C119.488 142.088 114.711 144.334 114.711 151.47C114.711 159.134 119.62 160.455 122.407 160.455C125.592 160.455 128.378 157.68 129.174 155.434V160.192H133.686V146.845C133.686 145.523 133.952 144.73 134.615 144.069C135.146 143.674 135.809 143.541 136.207 143.674C137.269 143.937 137.269 145.259 137.269 146.845V160.192H141.913V147.374Z" fill="#64A8F0"/>
<path fill-rule="evenodd" clip-rule="evenodd" d="M95.4696 113.545V121.077H94.5408C93.7446 117.377 92.0197 114.602 89.6309 114.47C88.0383 114.338 87.1105 115.263 86.3134 116.585C85.5179 118.17 85.1191 121.473 85.1191 125.438C85.1191 129.138 85.2522 131.912 85.6504 133.895C85.9152 134.82 86.5791 136.273 88.304 136.273C89.2328 136.273 89.8966 136.009 90.2947 135.481C90.9585 134.688 91.0909 133.102 91.0909 132.045C91.0909 130.327 91.0909 129.798 91.0909 128.477C91.0909 127.156 90.6928 126.363 90.029 125.966C89.4984 125.702 88.7021 125.702 88.304 125.57V124.645H95.7352V143.541H94.8058C94.4084 142.088 94.1427 141.03 93.4797 139.841C92.8159 138.652 91.6215 137.331 89.6309 137.331C87.5078 137.198 85.9152 138.52 85.9152 140.502C85.9152 143.145 87.5078 143.805 90.4271 145.391C93.214 146.976 96.7964 148.298 96.7964 152.923C96.7964 157.416 92.9483 160.191 88.5697 160.191C87.6402 160.191 81.5367 160.191 81.5367 160.191V151.074H82.4653C83.6598 157.945 86.5791 159.134 88.5697 159.134C91.0909 159.134 92.2845 157.548 92.2845 155.302C92.1521 152.394 90.1622 151.337 87.3753 149.884C83.3949 147.637 81.5367 146.58 81.5367 142.881C81.6691 139.709 84.1911 137.727 86.9772 136.935C81.1385 136.273 79.4136 130.988 79.546 125.305C79.546 119.624 82.8635 113.545 89.3652 113.545C92.2845 113.545 95.4696 113.545 95.4696 113.545Z" fill="#64A8F0"/>
</g>
<rect x="5" y="5" width="264" height="264" rx="132" stroke="#FBFCFE" stroke-width="10"/>
<defs>
<clipPath id="clip0_93_2927">
<rect width="115" height="47" fill="white" transform="translate(79.5 113.5)"/>
</clipPath>
</defs>
</svg>
