<svg width="654" height="442" viewBox="0 0 654 442" fill="none" xmlns="http://www.w3.org/2000/svg">
<path d="M85.2891 434.004V435.191H77.8438V434.152L81.5703 430.004C82.0286 429.493 82.3828 429.061 82.6328 428.707C82.888 428.348 83.0651 428.027 83.1641 427.746C83.2682 427.46 83.3203 427.168 83.3203 426.871C83.3203 426.496 83.2422 426.158 83.0859 425.855C82.9349 425.548 82.7109 425.303 82.4141 425.121C82.1172 424.939 81.7578 424.848 81.3359 424.848C80.8307 424.848 80.4089 424.947 80.0703 425.145C79.737 425.337 79.487 425.608 79.3203 425.957C79.1536 426.306 79.0703 426.707 79.0703 427.16H77.625C77.625 426.52 77.7656 425.934 78.0469 425.402C78.3281 424.871 78.7448 424.449 79.2969 424.137C79.849 423.819 80.5286 423.66 81.3359 423.66C82.0547 423.66 82.6693 423.788 83.1797 424.043C83.6901 424.293 84.0807 424.647 84.3516 425.105C84.6276 425.559 84.7656 426.09 84.7656 426.699C84.7656 427.033 84.7083 427.371 84.5938 427.715C84.4844 428.053 84.3307 428.392 84.1328 428.73C83.9401 429.069 83.7135 429.402 83.4531 429.73C83.1979 430.059 82.9245 430.382 82.6328 430.699L79.5859 434.004H85.2891ZM93.9766 428.598V430.332C93.9766 431.264 93.8932 432.051 93.7266 432.691C93.5599 433.332 93.3203 433.848 93.0078 434.238C92.6953 434.629 92.3177 434.913 91.875 435.09C91.4375 435.262 90.9427 435.348 90.3906 435.348C89.9531 435.348 89.5495 435.293 89.1797 435.184C88.8099 435.074 88.4766 434.9 88.1797 434.66C87.888 434.415 87.638 434.098 87.4297 433.707C87.2214 433.316 87.0625 432.842 86.9531 432.285C86.8438 431.728 86.7891 431.077 86.7891 430.332V428.598C86.7891 427.665 86.8724 426.884 87.0391 426.254C87.2109 425.624 87.4531 425.118 87.7656 424.738C88.0781 424.353 88.4531 424.077 88.8906 423.91C89.3333 423.743 89.8281 423.66 90.375 423.66C90.8177 423.66 91.224 423.715 91.5938 423.824C91.9688 423.928 92.3021 424.098 92.5938 424.332C92.8854 424.561 93.1328 424.868 93.3359 425.254C93.5443 425.634 93.7031 426.1 93.8125 426.652C93.9219 427.204 93.9766 427.853 93.9766 428.598ZM92.5234 430.566V428.355C92.5234 427.845 92.4922 427.397 92.4297 427.012C92.3724 426.621 92.2865 426.288 92.1719 426.012C92.0573 425.736 91.9115 425.512 91.7344 425.34C91.5625 425.168 91.362 425.043 91.1328 424.965C90.9089 424.882 90.6562 424.84 90.375 424.84C90.0312 424.84 89.7266 424.905 89.4609 425.035C89.1953 425.16 88.9714 425.361 88.7891 425.637C88.612 425.913 88.4766 426.275 88.3828 426.723C88.2891 427.171 88.2422 427.715 88.2422 428.355V430.566C88.2422 431.077 88.2708 431.527 88.3281 431.918C88.3906 432.309 88.4818 432.647 88.6016 432.934C88.7214 433.215 88.8672 433.447 89.0391 433.629C89.2109 433.811 89.4089 433.947 89.6328 434.035C89.862 434.118 90.1146 434.16 90.3906 434.16C90.7448 434.16 91.0547 434.092 91.3203 433.957C91.5859 433.822 91.8073 433.611 91.9844 433.324C92.1667 433.033 92.3021 432.66 92.3906 432.207C92.4792 431.749 92.5234 431.202 92.5234 430.566ZM102.977 428.598V430.332C102.977 431.264 102.893 432.051 102.727 432.691C102.56 433.332 102.32 433.848 102.008 434.238C101.695 434.629 101.318 434.913 100.875 435.09C100.438 435.262 99.9427 435.348 99.3906 435.348C98.9531 435.348 98.5495 435.293 98.1797 435.184C97.8099 435.074 97.4766 434.9 97.1797 434.66C96.888 434.415 96.638 434.098 96.4297 433.707C96.2214 433.316 96.0625 432.842 95.9531 432.285C95.8438 431.728 95.7891 431.077 95.7891 430.332V428.598C95.7891 427.665 95.8724 426.884 96.0391 426.254C96.2109 425.624 96.4531 425.118 96.7656 424.738C97.0781 424.353 97.4531 424.077 97.8906 423.91C98.3333 423.743 98.8281 423.66 99.375 423.66C99.8177 423.66 100.224 423.715 100.594 423.824C100.969 423.928 101.302 424.098 101.594 424.332C101.885 424.561 102.133 424.868 102.336 425.254C102.544 425.634 102.703 426.1 102.812 426.652C102.922 427.204 102.977 427.853 102.977 428.598ZM101.523 430.566V428.355C101.523 427.845 101.492 427.397 101.43 427.012C101.372 426.621 101.286 426.288 101.172 426.012C101.057 425.736 100.911 425.512 100.734 425.34C100.562 425.168 100.362 425.043 100.133 424.965C99.9089 424.882 99.6562 424.84 99.375 424.84C99.0312 424.84 98.7266 424.905 98.4609 425.035C98.1953 425.16 97.9714 425.361 97.7891 425.637C97.612 425.913 97.4766 426.275 97.3828 426.723C97.2891 427.171 97.2422 427.715 97.2422 428.355V430.566C97.2422 431.077 97.2708 431.527 97.3281 431.918C97.3906 432.309 97.4818 432.647 97.6016 432.934C97.7214 433.215 97.8672 433.447 98.0391 433.629C98.2109 433.811 98.4089 433.947 98.6328 434.035C98.862 434.118 99.1146 434.16 99.3906 434.16C99.7448 434.16 100.055 434.092 100.32 433.957C100.586 433.822 100.807 433.611 100.984 433.324C101.167 433.033 101.302 432.66 101.391 432.207C101.479 431.749 101.523 431.202 101.523 430.566ZM111.977 428.598V430.332C111.977 431.264 111.893 432.051 111.727 432.691C111.56 433.332 111.32 433.848 111.008 434.238C110.695 434.629 110.318 434.913 109.875 435.09C109.438 435.262 108.943 435.348 108.391 435.348C107.953 435.348 107.549 435.293 107.18 435.184C106.81 435.074 106.477 434.9 106.18 434.66C105.888 434.415 105.638 434.098 105.43 433.707C105.221 433.316 105.062 432.842 104.953 432.285C104.844 431.728 104.789 431.077 104.789 430.332V428.598C104.789 427.665 104.872 426.884 105.039 426.254C105.211 425.624 105.453 425.118 105.766 424.738C106.078 424.353 106.453 424.077 106.891 423.91C107.333 423.743 107.828 423.66 108.375 423.66C108.818 423.66 109.224 423.715 109.594 423.824C109.969 423.928 110.302 424.098 110.594 424.332C110.885 424.561 111.133 424.868 111.336 425.254C111.544 425.634 111.703 426.1 111.812 426.652C111.922 427.204 111.977 427.853 111.977 428.598ZM110.523 430.566V428.355C110.523 427.845 110.492 427.397 110.43 427.012C110.372 426.621 110.286 426.288 110.172 426.012C110.057 425.736 109.911 425.512 109.734 425.34C109.562 425.168 109.362 425.043 109.133 424.965C108.909 424.882 108.656 424.84 108.375 424.84C108.031 424.84 107.727 424.905 107.461 425.035C107.195 425.16 106.971 425.361 106.789 425.637C106.612 425.913 106.477 426.275 106.383 426.723C106.289 427.171 106.242 427.715 106.242 428.355V430.566C106.242 431.077 106.271 431.527 106.328 431.918C106.391 432.309 106.482 432.647 106.602 432.934C106.721 433.215 106.867 433.447 107.039 433.629C107.211 433.811 107.409 433.947 107.633 434.035C107.862 434.118 108.115 434.16 108.391 434.16C108.745 434.16 109.055 434.092 109.32 433.957C109.586 433.822 109.807 433.611 109.984 433.324C110.167 433.033 110.302 432.66 110.391 432.207C110.479 431.749 110.523 431.202 110.523 430.566Z" fill="#6A80E4"/>
<path d="M16.7255 11.0898V22.5273H15.2802V12.8945L12.3661 13.957V12.6523L16.4989 11.0898H16.7255ZM28.1161 15.9336V17.668C28.1161 18.6003 28.0328 19.3867 27.8661 20.0273C27.6995 20.668 27.4599 21.1836 27.1474 21.5742C26.8349 21.9648 26.4573 22.2487 26.0146 22.4258C25.5771 22.5977 25.0823 22.6836 24.5302 22.6836C24.0927 22.6836 23.6891 22.6289 23.3193 22.5195C22.9495 22.4102 22.6161 22.2357 22.3193 21.9961C22.0276 21.7513 21.7776 21.4336 21.5693 21.043C21.3609 20.6523 21.2021 20.1784 21.0927 19.6211C20.9833 19.0638 20.9286 18.4128 20.9286 17.668V15.9336C20.9286 15.0013 21.012 14.2201 21.1786 13.5898C21.3505 12.9596 21.5927 12.4544 21.9052 12.0742C22.2177 11.6888 22.5927 11.4128 23.0302 11.2461C23.4729 11.0794 23.9677 10.9961 24.5146 10.9961C24.9573 10.9961 25.3635 11.0508 25.7333 11.1602C26.1083 11.2643 26.4417 11.4336 26.7333 11.668C27.025 11.8971 27.2724 12.2044 27.4755 12.5898C27.6838 12.9701 27.8427 13.4362 27.9521 13.9883C28.0614 14.5404 28.1161 15.1888 28.1161 15.9336ZM26.663 17.9023V15.6914C26.663 15.181 26.6318 14.7331 26.5693 14.3477C26.512 13.957 26.426 13.6237 26.3114 13.3477C26.1969 13.0716 26.051 12.8477 25.8739 12.6758C25.7021 12.5039 25.5016 12.3789 25.2724 12.3008C25.0484 12.2174 24.7958 12.1758 24.5146 12.1758C24.1708 12.1758 23.8661 12.2409 23.6005 12.3711C23.3349 12.4961 23.1109 12.6966 22.9286 12.9727C22.7516 13.2487 22.6161 13.6107 22.5224 14.0586C22.4286 14.5065 22.3818 15.0508 22.3818 15.6914V17.9023C22.3818 18.4128 22.4104 18.8633 22.4677 19.2539C22.5302 19.6445 22.6213 19.9831 22.7411 20.2695C22.8609 20.5508 23.0068 20.7826 23.1786 20.9648C23.3505 21.1471 23.5484 21.2826 23.7724 21.3711C24.0016 21.4544 24.2542 21.4961 24.5302 21.4961C24.8844 21.4961 25.1943 21.4284 25.4599 21.293C25.7255 21.1576 25.9469 20.9466 26.1239 20.6602C26.3062 20.3685 26.4417 19.9961 26.5302 19.543C26.6187 19.0846 26.663 18.5378 26.663 17.9023ZM37.1161 15.9336V17.668C37.1161 18.6003 37.0328 19.3867 36.8661 20.0273C36.6995 20.668 36.4599 21.1836 36.1474 21.5742C35.8349 21.9648 35.4573 22.2487 35.0146 22.4258C34.5771 22.5977 34.0823 22.6836 33.5302 22.6836C33.0927 22.6836 32.6891 22.6289 32.3193 22.5195C31.9495 22.4102 31.6161 22.2357 31.3193 21.9961C31.0276 21.7513 30.7776 21.4336 30.5693 21.043C30.3609 20.6523 30.2021 20.1784 30.0927 19.6211C29.9833 19.0638 29.9286 18.4128 29.9286 17.668V15.9336C29.9286 15.0013 30.012 14.2201 30.1786 13.5898C30.3505 12.9596 30.5927 12.4544 30.9052 12.0742C31.2177 11.6888 31.5927 11.4128 32.0302 11.2461C32.4729 11.0794 32.9677 10.9961 33.5146 10.9961C33.9573 10.9961 34.3635 11.0508 34.7333 11.1602C35.1083 11.2643 35.4417 11.4336 35.7333 11.668C36.025 11.8971 36.2724 12.2044 36.4755 12.5898C36.6838 12.9701 36.8427 13.4362 36.9521 13.9883C37.0614 14.5404 37.1161 15.1888 37.1161 15.9336ZM35.663 17.9023V15.6914C35.663 15.181 35.6318 14.7331 35.5693 14.3477C35.512 13.957 35.426 13.6237 35.3114 13.3477C35.1969 13.0716 35.051 12.8477 34.8739 12.6758C34.7021 12.5039 34.5016 12.3789 34.2724 12.3008C34.0484 12.2174 33.7958 12.1758 33.5146 12.1758C33.1708 12.1758 32.8661 12.2409 32.6005 12.3711C32.3349 12.4961 32.1109 12.6966 31.9286 12.9727C31.7516 13.2487 31.6161 13.6107 31.5224 14.0586C31.4286 14.5065 31.3818 15.0508 31.3818 15.6914V17.9023C31.3818 18.4128 31.4104 18.8633 31.4677 19.2539C31.5302 19.6445 31.6213 19.9831 31.7411 20.2695C31.8609 20.5508 32.0068 20.7826 32.1786 20.9648C32.3505 21.1471 32.5484 21.2826 32.7724 21.3711C33.0016 21.4544 33.2542 21.4961 33.5302 21.4961C33.8844 21.4961 34.1943 21.4284 34.4599 21.293C34.7255 21.1576 34.9469 20.9466 35.1239 20.6602C35.3062 20.3685 35.4417 19.9961 35.5302 19.543C35.6187 19.0846 35.663 18.5378 35.663 17.9023ZM44.5536 10.5273V22.5273H43.1005V10.5273H44.5536ZM49.7177 14.0742L46.0302 18.0195L43.9677 20.1602L43.8505 18.6211L45.3271 16.8555L47.9521 14.0742H49.7177ZM48.3974 22.5273L45.3818 18.4961L46.1318 17.207L50.1005 22.5273H48.3974Z" fill="#6A80E4"/>
<path d="M22.413 63.0957H22.5614C23.3948 63.0957 24.0719 62.9785 24.5927 62.7441C25.1135 62.5098 25.5146 62.1947 25.7958 61.7988C26.0771 61.403 26.2698 60.9577 26.3739 60.4629C26.4781 59.9629 26.5302 59.4499 26.5302 58.9238V57.1816C26.5302 56.666 26.4703 56.2077 26.3505 55.8066C26.2359 55.4056 26.0745 55.0697 25.8661 54.7988C25.663 54.528 25.4312 54.3223 25.1708 54.1816C24.9104 54.041 24.6344 53.9707 24.3427 53.9707C24.0094 53.9707 23.7099 54.0384 23.4443 54.1738C23.1838 54.304 22.9625 54.4889 22.7802 54.7285C22.6031 54.9681 22.4677 55.2493 22.3739 55.5723C22.2802 55.8952 22.2333 56.2467 22.2333 56.627C22.2333 56.9655 22.275 57.2936 22.3583 57.6113C22.4417 57.929 22.5693 58.2155 22.7411 58.4707C22.913 58.7259 23.1266 58.929 23.3818 59.0801C23.6422 59.2259 23.9469 59.2988 24.2958 59.2988C24.6187 59.2988 24.9208 59.2363 25.2021 59.1113C25.4885 58.9811 25.7411 58.8066 25.9599 58.5879C26.1838 58.3639 26.3609 58.1113 26.4911 57.8301C26.6266 57.5488 26.7047 57.2546 26.7255 56.9473H27.413C27.413 57.3796 27.3271 57.8066 27.1552 58.2285C26.9885 58.6452 26.7542 59.0254 26.4521 59.3691C26.15 59.7129 25.7958 59.9889 25.3896 60.1973C24.9833 60.4004 24.5406 60.502 24.0614 60.502C23.4989 60.502 23.012 60.3926 22.6005 60.1738C22.1891 59.9551 21.8505 59.6634 21.5849 59.2988C21.3245 58.9342 21.1292 58.528 20.9989 58.0801C20.8739 57.627 20.8114 57.1686 20.8114 56.7051C20.8114 56.1634 20.887 55.6556 21.038 55.1816C21.1891 54.7077 21.413 54.291 21.7099 53.9316C22.0068 53.5671 22.3739 53.2832 22.8114 53.0801C23.2542 52.877 23.7646 52.7754 24.3427 52.7754C24.9937 52.7754 25.5484 52.9056 26.0068 53.166C26.4651 53.4264 26.8375 53.7754 27.1239 54.2129C27.4156 54.6504 27.6292 55.1426 27.7646 55.6895C27.9 56.2363 27.9677 56.7988 27.9677 57.377V57.9004C27.9677 58.4889 27.9286 59.0879 27.8505 59.6973C27.7776 60.3014 27.6344 60.8796 27.4208 61.4316C27.2125 61.9837 26.9078 62.4785 26.5068 62.916C26.1057 63.3483 25.5823 63.6921 24.9364 63.9473C24.2958 64.1973 23.5042 64.3223 22.5614 64.3223H22.413V63.0957ZM37.1161 57.7129V59.4473C37.1161 60.3796 37.0328 61.166 36.8661 61.8066C36.6995 62.4473 36.4599 62.9629 36.1474 63.3535C35.8349 63.7441 35.4573 64.028 35.0146 64.2051C34.5771 64.377 34.0823 64.4629 33.5302 64.4629C33.0927 64.4629 32.6891 64.4082 32.3193 64.2988C31.9495 64.1895 31.6161 64.015 31.3193 63.7754C31.0276 63.5306 30.7776 63.2129 30.5693 62.8223C30.3609 62.4316 30.2021 61.9577 30.0927 61.4004C29.9833 60.8431 29.9286 60.1921 29.9286 59.4473V57.7129C29.9286 56.7806 30.012 55.9993 30.1786 55.3691C30.3505 54.7389 30.5927 54.2337 30.9052 53.8535C31.2177 53.4681 31.5927 53.1921 32.0302 53.0254C32.4729 52.8587 32.9677 52.7754 33.5146 52.7754C33.9573 52.7754 34.3635 52.8301 34.7333 52.9395C35.1083 53.0436 35.4417 53.2129 35.7333 53.4473C36.025 53.6764 36.2724 53.9837 36.4755 54.3691C36.6838 54.7493 36.8427 55.2155 36.9521 55.7676C37.0614 56.3197 37.1161 56.9681 37.1161 57.7129ZM35.663 59.6816V57.4707C35.663 56.9603 35.6318 56.5124 35.5693 56.127C35.512 55.7363 35.426 55.403 35.3114 55.127C35.1969 54.8509 35.051 54.627 34.8739 54.4551C34.7021 54.2832 34.5016 54.1582 34.2724 54.0801C34.0484 53.9967 33.7958 53.9551 33.5146 53.9551C33.1708 53.9551 32.8661 54.0202 32.6005 54.1504C32.3349 54.2754 32.1109 54.4759 31.9286 54.752C31.7516 55.028 31.6161 55.39 31.5224 55.8379C31.4286 56.2858 31.3818 56.8301 31.3818 57.4707V59.6816C31.3818 60.1921 31.4104 60.6426 31.4677 61.0332C31.5302 61.4238 31.6213 61.7624 31.7411 62.0488C31.8609 62.3301 32.0068 62.5618 32.1786 62.7441C32.3505 62.9264 32.5484 63.0618 32.7724 63.1504C33.0016 63.2337 33.2542 63.2754 33.5302 63.2754C33.8844 63.2754 34.1943 63.2077 34.4599 63.0723C34.7255 62.9368 34.9469 62.7259 35.1239 62.4395C35.3062 62.1478 35.4417 61.7754 35.5302 61.3223C35.6187 60.8639 35.663 60.3171 35.663 59.6816ZM44.5536 52.3066V64.3066H43.1005V52.3066H44.5536ZM49.7177 55.8535L46.0302 59.7988L43.9677 61.9395L43.8505 60.4004L45.3271 58.6348L47.9521 55.8535H49.7177ZM48.3974 64.3066L45.3818 60.2754L46.1318 58.9863L50.1005 64.3066H48.3974Z" fill="#6A80E4"/>
<path d="M28.1474 103.004C28.1474 103.697 27.9859 104.285 27.663 104.77C27.3453 105.249 26.913 105.613 26.3661 105.863C25.8245 106.113 25.2125 106.238 24.5302 106.238C23.8479 106.238 23.2333 106.113 22.6864 105.863C22.1396 105.613 21.7073 105.249 21.3896 104.77C21.0719 104.285 20.913 103.697 20.913 103.004C20.913 102.551 20.9989 102.137 21.1708 101.762C21.3479 101.382 21.5953 101.051 21.913 100.77C22.2359 100.488 22.6161 100.272 23.0536 100.121C23.4963 99.9648 23.9833 99.8867 24.5146 99.8867C25.2125 99.8867 25.8349 100.022 26.3818 100.293C26.9286 100.559 27.3583 100.926 27.6708 101.395C27.9885 101.863 28.1474 102.4 28.1474 103.004ZM26.6943 102.973C26.6943 102.551 26.6031 102.178 26.4208 101.855C26.2385 101.527 25.9833 101.272 25.6552 101.09C25.3271 100.908 24.9469 100.816 24.5146 100.816C24.0719 100.816 23.6891 100.908 23.3661 101.09C23.0484 101.272 22.801 101.527 22.6239 101.855C22.4469 102.178 22.3583 102.551 22.3583 102.973C22.3583 103.41 22.4443 103.785 22.6161 104.098C22.7932 104.405 23.0432 104.642 23.3661 104.809C23.6943 104.97 24.0823 105.051 24.5302 105.051C24.9781 105.051 25.3635 104.97 25.6864 104.809C26.0094 104.642 26.2568 104.405 26.4286 104.098C26.6057 103.785 26.6943 103.41 26.6943 102.973ZM27.8818 97.668C27.8818 98.2201 27.7359 98.7174 27.4443 99.1602C27.1526 99.6029 26.7542 99.9518 26.2489 100.207C25.7437 100.462 25.1708 100.59 24.5302 100.59C23.8792 100.59 23.2984 100.462 22.788 100.207C22.2828 99.9518 21.887 99.6029 21.6005 99.1602C21.3141 98.7174 21.1708 98.2201 21.1708 97.668C21.1708 97.0065 21.3141 96.444 21.6005 95.9805C21.8922 95.5169 22.2906 95.1628 22.7958 94.918C23.301 94.6732 23.8766 94.5508 24.5224 94.5508C25.1734 94.5508 25.7516 94.6732 26.2568 94.918C26.762 95.1628 27.1578 95.5169 27.4443 95.9805C27.7359 96.444 27.8818 97.0065 27.8818 97.668ZM26.4364 97.6914C26.4364 97.3112 26.3557 96.9753 26.1943 96.6836C26.0328 96.3919 25.8088 96.1628 25.5224 95.9961C25.2359 95.8242 24.9026 95.7383 24.5224 95.7383C24.1422 95.7383 23.8088 95.819 23.5224 95.9805C23.2411 96.1367 23.0198 96.3607 22.8583 96.6523C22.7021 96.944 22.6239 97.2904 22.6239 97.6914C22.6239 98.082 22.7021 98.4232 22.8583 98.7148C23.0198 99.0065 23.2437 99.2331 23.5302 99.3945C23.8167 99.556 24.15 99.6367 24.5302 99.6367C24.9104 99.6367 25.2411 99.556 25.5224 99.3945C25.8088 99.2331 26.0328 99.0065 26.1943 98.7148C26.3557 98.4232 26.4364 98.082 26.4364 97.6914ZM37.1161 99.4883V101.223C37.1161 102.155 37.0328 102.941 36.8661 103.582C36.6995 104.223 36.4599 104.738 36.1474 105.129C35.8349 105.52 35.4573 105.803 35.0146 105.98C34.5771 106.152 34.0823 106.238 33.5302 106.238C33.0927 106.238 32.6891 106.184 32.3193 106.074C31.9495 105.965 31.6161 105.79 31.3193 105.551C31.0276 105.306 30.7776 104.988 30.5693 104.598C30.3609 104.207 30.2021 103.733 30.0927 103.176C29.9833 102.618 29.9286 101.967 29.9286 101.223V99.4883C29.9286 98.556 30.012 97.7747 30.1786 97.1445C30.3505 96.5143 30.5927 96.0091 30.9052 95.6289C31.2177 95.2435 31.5927 94.9674 32.0302 94.8008C32.4729 94.6341 32.9677 94.5508 33.5146 94.5508C33.9573 94.5508 34.3635 94.6055 34.7333 94.7148C35.1083 94.819 35.4417 94.9883 35.7333 95.2227C36.025 95.4518 36.2724 95.7591 36.4755 96.1445C36.6838 96.5247 36.8427 96.9909 36.9521 97.543C37.0614 98.0951 37.1161 98.7435 37.1161 99.4883ZM35.663 101.457V99.2461C35.663 98.7357 35.6318 98.2878 35.5693 97.9023C35.512 97.5117 35.426 97.1784 35.3114 96.9023C35.1969 96.6263 35.051 96.4023 34.8739 96.2305C34.7021 96.0586 34.5016 95.9336 34.2724 95.8555C34.0484 95.7721 33.7958 95.7305 33.5146 95.7305C33.1708 95.7305 32.8661 95.7956 32.6005 95.9258C32.3349 96.0508 32.1109 96.2513 31.9286 96.5273C31.7516 96.8034 31.6161 97.1654 31.5224 97.6133C31.4286 98.0612 31.3818 98.6055 31.3818 99.2461V101.457C31.3818 101.967 31.4104 102.418 31.4677 102.809C31.5302 103.199 31.6213 103.538 31.7411 103.824C31.8609 104.105 32.0068 104.337 32.1786 104.52C32.3505 104.702 32.5484 104.837 32.7724 104.926C33.0016 105.009 33.2542 105.051 33.5302 105.051C33.8844 105.051 34.1943 104.983 34.4599 104.848C34.7255 104.712 34.9469 104.501 35.1239 104.215C35.3062 103.923 35.4417 103.551 35.5302 103.098C35.6187 102.639 35.663 102.092 35.663 101.457ZM44.5536 94.082V106.082H43.1005V94.082H44.5536ZM49.7177 97.6289L46.0302 101.574L43.9677 103.715L43.8505 102.176L45.3271 100.41L47.9521 97.6289H49.7177ZM48.3974 106.082L45.3818 102.051L46.1318 100.762L50.1005 106.082H48.3974Z" fill="#6A80E4"/>
<path d="M28.3271 136.486V137.299L23.6161 147.861H22.0927L26.7958 137.674H20.6396V136.486H28.3271ZM37.1161 141.268V143.002C37.1161 143.934 37.0328 144.721 36.8661 145.361C36.6995 146.002 36.4599 146.518 36.1474 146.908C35.8349 147.299 35.4573 147.583 35.0146 147.76C34.5771 147.932 34.0823 148.018 33.5302 148.018C33.0927 148.018 32.6891 147.963 32.3193 147.854C31.9495 147.744 31.6161 147.57 31.3193 147.33C31.0276 147.085 30.7776 146.768 30.5693 146.377C30.3609 145.986 30.2021 145.512 30.0927 144.955C29.9833 144.398 29.9286 143.747 29.9286 143.002V141.268C29.9286 140.335 30.012 139.554 30.1786 138.924C30.3505 138.294 30.5927 137.788 30.9052 137.408C31.2177 137.023 31.5927 136.747 32.0302 136.58C32.4729 136.413 32.9677 136.33 33.5146 136.33C33.9573 136.33 34.3635 136.385 34.7333 136.494C35.1083 136.598 35.4417 136.768 35.7333 137.002C36.025 137.231 36.2724 137.538 36.4755 137.924C36.6838 138.304 36.8427 138.77 36.9521 139.322C37.0614 139.874 37.1161 140.523 37.1161 141.268ZM35.663 143.236V141.025C35.663 140.515 35.6318 140.067 35.5693 139.682C35.512 139.291 35.426 138.958 35.3114 138.682C35.1969 138.406 35.051 138.182 34.8739 138.01C34.7021 137.838 34.5016 137.713 34.2724 137.635C34.0484 137.551 33.7958 137.51 33.5146 137.51C33.1708 137.51 32.8661 137.575 32.6005 137.705C32.3349 137.83 32.1109 138.031 31.9286 138.307C31.7516 138.583 31.6161 138.945 31.5224 139.393C31.4286 139.84 31.3818 140.385 31.3818 141.025V143.236C31.3818 143.747 31.4104 144.197 31.4677 144.588C31.5302 144.979 31.6213 145.317 31.7411 145.604C31.8609 145.885 32.0068 146.117 32.1786 146.299C32.3505 146.481 32.5484 146.617 32.7724 146.705C33.0016 146.788 33.2542 146.83 33.5302 146.83C33.8844 146.83 34.1943 146.762 34.4599 146.627C34.7255 146.492 34.9469 146.281 35.1239 145.994C35.3062 145.702 35.4417 145.33 35.5302 144.877C35.6187 144.419 35.663 143.872 35.663 143.236ZM44.5536 135.861V147.861H43.1005V135.861H44.5536ZM49.7177 139.408L46.0302 143.354L43.9677 145.494L43.8505 143.955L45.3271 142.189L47.9521 139.408H49.7177ZM48.3974 147.861L45.3818 143.83L46.1318 142.541L50.1005 147.861H48.3974Z" fill="#6A80E4"/>
<path d="M26.5224 178.248H26.6474V179.475H26.5224C25.7568 179.475 25.1161 179.6 24.6005 179.85C24.0849 180.094 23.676 180.425 23.3739 180.842C23.0719 181.253 22.8531 181.717 22.7177 182.232C22.5875 182.748 22.5224 183.271 22.5224 183.803V185.475C22.5224 185.98 22.5823 186.428 22.7021 186.818C22.8219 187.204 22.9859 187.529 23.1943 187.795C23.4026 188.061 23.637 188.261 23.8974 188.396C24.163 188.532 24.4391 188.6 24.7255 188.6C25.0588 188.6 25.3557 188.537 25.6161 188.412C25.8766 188.282 26.0953 188.102 26.2724 187.873C26.4547 187.639 26.5927 187.363 26.6864 187.045C26.7802 186.727 26.8271 186.378 26.8271 185.998C26.8271 185.66 26.7854 185.334 26.7021 185.021C26.6187 184.704 26.4911 184.423 26.3193 184.178C26.1474 183.928 25.9312 183.732 25.6708 183.592C25.4156 183.446 25.1109 183.373 24.7568 183.373C24.3557 183.373 23.9807 183.472 23.6318 183.67C23.288 183.863 23.0042 184.118 22.7802 184.436C22.5614 184.748 22.4364 185.089 22.4052 185.459L21.6396 185.451C21.7125 184.868 21.8479 184.37 22.0458 183.959C22.2489 183.542 22.4989 183.204 22.7958 182.943C23.0979 182.678 23.4338 182.485 23.8036 182.365C24.1786 182.24 24.5745 182.178 24.9911 182.178C25.5588 182.178 26.0484 182.285 26.4599 182.498C26.8713 182.712 27.2099 182.998 27.4755 183.357C27.7411 183.712 27.9364 184.113 28.0614 184.561C28.1917 185.003 28.2568 185.459 28.2568 185.928C28.2568 186.464 28.1812 186.967 28.0302 187.436C27.8792 187.904 27.6526 188.316 27.3505 188.67C27.0536 189.024 26.6864 189.3 26.2489 189.498C25.8114 189.696 25.3036 189.795 24.7255 189.795C24.1109 189.795 23.5745 189.67 23.1161 189.42C22.6578 189.165 22.2776 188.826 21.9755 188.404C21.6734 187.982 21.4469 187.514 21.2958 186.998C21.1448 186.482 21.0693 185.959 21.0693 185.428V184.748C21.0693 183.946 21.15 183.16 21.3114 182.389C21.4729 181.618 21.7516 180.92 22.1474 180.295C22.5484 179.67 23.1031 179.173 23.8114 178.803C24.5198 178.433 25.4234 178.248 26.5224 178.248ZM37.1161 183.045V184.779C37.1161 185.712 37.0328 186.498 36.8661 187.139C36.6995 187.779 36.4599 188.295 36.1474 188.686C35.8349 189.076 35.4573 189.36 35.0146 189.537C34.5771 189.709 34.0823 189.795 33.5302 189.795C33.0927 189.795 32.6891 189.74 32.3193 189.631C31.9495 189.521 31.6161 189.347 31.3193 189.107C31.0276 188.863 30.7776 188.545 30.5693 188.154C30.3609 187.764 30.2021 187.29 30.0927 186.732C29.9833 186.175 29.9286 185.524 29.9286 184.779V183.045C29.9286 182.113 30.012 181.331 30.1786 180.701C30.3505 180.071 30.5927 179.566 30.9052 179.186C31.2177 178.8 31.5927 178.524 32.0302 178.357C32.4729 178.191 32.9677 178.107 33.5146 178.107C33.9573 178.107 34.3635 178.162 34.7333 178.271C35.1083 178.376 35.4417 178.545 35.7333 178.779C36.025 179.008 36.2724 179.316 36.4755 179.701C36.6838 180.081 36.8427 180.548 36.9521 181.1C37.0614 181.652 37.1161 182.3 37.1161 183.045ZM35.663 185.014V182.803C35.663 182.292 35.6318 181.844 35.5693 181.459C35.512 181.068 35.426 180.735 35.3114 180.459C35.1969 180.183 35.051 179.959 34.8739 179.787C34.7021 179.615 34.5016 179.49 34.2724 179.412C34.0484 179.329 33.7958 179.287 33.5146 179.287C33.1708 179.287 32.8661 179.352 32.6005 179.482C32.3349 179.607 32.1109 179.808 31.9286 180.084C31.7516 180.36 31.6161 180.722 31.5224 181.17C31.4286 181.618 31.3818 182.162 31.3818 182.803V185.014C31.3818 185.524 31.4104 185.975 31.4677 186.365C31.5302 186.756 31.6213 187.094 31.7411 187.381C31.8609 187.662 32.0068 187.894 32.1786 188.076C32.3505 188.258 32.5484 188.394 32.7724 188.482C33.0016 188.566 33.2542 188.607 33.5302 188.607C33.8844 188.607 34.1943 188.54 34.4599 188.404C34.7255 188.269 34.9469 188.058 35.1239 187.771C35.3062 187.48 35.4417 187.107 35.5302 186.654C35.6187 186.196 35.663 185.649 35.663 185.014ZM44.5536 177.639V189.639H43.1005V177.639H44.5536ZM49.7177 181.186L46.0302 185.131L43.9677 187.271L43.8505 185.732L45.3271 183.967L47.9521 181.186H49.7177ZM48.3974 189.639L45.3818 185.607L46.1318 184.318L50.1005 189.639H48.3974Z" fill="#6A80E4"/>
<path d="M22.8036 225.148L21.6474 224.852L22.2177 219.188H28.0536V220.523H23.4443L23.1005 223.617C23.3088 223.497 23.5719 223.385 23.8896 223.281C24.2125 223.177 24.5823 223.125 24.9989 223.125C25.525 223.125 25.9963 223.216 26.413 223.398C26.8297 223.576 27.1838 223.831 27.4755 224.164C27.7724 224.497 27.9989 224.898 28.1552 225.367C28.3114 225.836 28.3896 226.359 28.3896 226.938C28.3896 227.484 28.3141 227.987 28.163 228.445C28.0172 228.904 27.7958 229.305 27.4989 229.648C27.2021 229.987 26.8271 230.25 26.3739 230.438C25.926 230.625 25.3974 230.719 24.788 230.719C24.3297 230.719 23.8948 230.656 23.4833 230.531C23.0771 230.401 22.7125 230.206 22.3896 229.945C22.0719 229.68 21.8114 229.352 21.6083 228.961C21.4104 228.565 21.2854 228.102 21.2333 227.57H22.6083C22.6708 227.997 22.7958 228.357 22.9833 228.648C23.1708 228.94 23.4156 229.161 23.7177 229.312C24.025 229.458 24.3818 229.531 24.788 229.531C25.1318 229.531 25.4364 229.471 25.7021 229.352C25.9677 229.232 26.1917 229.06 26.3739 228.836C26.5562 228.612 26.6943 228.341 26.788 228.023C26.887 227.706 26.9364 227.349 26.9364 226.953C26.9364 226.594 26.887 226.26 26.788 225.953C26.6891 225.646 26.5406 225.378 26.3427 225.148C26.15 224.919 25.913 224.742 25.6318 224.617C25.3505 224.487 25.0276 224.422 24.663 224.422C24.1786 224.422 23.8114 224.487 23.5614 224.617C23.3167 224.747 23.0641 224.924 22.8036 225.148ZM37.1161 223.969V225.703C37.1161 226.635 37.0328 227.422 36.8661 228.062C36.6995 228.703 36.4599 229.219 36.1474 229.609C35.8349 230 35.4573 230.284 35.0146 230.461C34.5771 230.633 34.0823 230.719 33.5302 230.719C33.0927 230.719 32.6891 230.664 32.3193 230.555C31.9495 230.445 31.6161 230.271 31.3193 230.031C31.0276 229.786 30.7776 229.469 30.5693 229.078C30.3609 228.688 30.2021 228.214 30.0927 227.656C29.9833 227.099 29.9286 226.448 29.9286 225.703V223.969C29.9286 223.036 30.012 222.255 30.1786 221.625C30.3505 220.995 30.5927 220.49 30.9052 220.109C31.2177 219.724 31.5927 219.448 32.0302 219.281C32.4729 219.115 32.9677 219.031 33.5146 219.031C33.9573 219.031 34.3635 219.086 34.7333 219.195C35.1083 219.299 35.4417 219.469 35.7333 219.703C36.025 219.932 36.2724 220.24 36.4755 220.625C36.6838 221.005 36.8427 221.471 36.9521 222.023C37.0614 222.576 37.1161 223.224 37.1161 223.969ZM35.663 225.938V223.727C35.663 223.216 35.6318 222.768 35.5693 222.383C35.512 221.992 35.426 221.659 35.3114 221.383C35.1969 221.107 35.051 220.883 34.8739 220.711C34.7021 220.539 34.5016 220.414 34.2724 220.336C34.0484 220.253 33.7958 220.211 33.5146 220.211C33.1708 220.211 32.8661 220.276 32.6005 220.406C32.3349 220.531 32.1109 220.732 31.9286 221.008C31.7516 221.284 31.6161 221.646 31.5224 222.094C31.4286 222.542 31.3818 223.086 31.3818 223.727V225.938C31.3818 226.448 31.4104 226.898 31.4677 227.289C31.5302 227.68 31.6213 228.018 31.7411 228.305C31.8609 228.586 32.0068 228.818 32.1786 229C32.3505 229.182 32.5484 229.318 32.7724 229.406C33.0016 229.49 33.2542 229.531 33.5302 229.531C33.8844 229.531 34.1943 229.464 34.4599 229.328C34.7255 229.193 34.9469 228.982 35.1239 228.695C35.3062 228.404 35.4417 228.031 35.5302 227.578C35.6187 227.12 35.663 226.573 35.663 225.938ZM44.5536 218.562V230.562H43.1005V218.562H44.5536ZM49.7177 222.109L46.0302 226.055L43.9677 228.195L43.8505 226.656L45.3271 224.891L47.9521 222.109H49.7177ZM48.3974 230.562L45.3818 226.531L46.1318 225.242L50.1005 230.562H48.3974Z" fill="#6A80E4"/>
<path d="M28.663 268.514V269.701H20.4443V268.85L25.538 260.967H26.7177L25.4521 263.248L22.0849 268.514H28.663ZM27.0771 260.967V272.342H25.6318V260.967H27.0771ZM37.1161 265.748V267.482C37.1161 268.415 37.0328 269.201 36.8661 269.842C36.6995 270.482 36.4599 270.998 36.1474 271.389C35.8349 271.779 35.4573 272.063 35.0146 272.24C34.5771 272.412 34.0823 272.498 33.5302 272.498C33.0927 272.498 32.6891 272.443 32.3193 272.334C31.9495 272.225 31.6161 272.05 31.3193 271.811C31.0276 271.566 30.7776 271.248 30.5693 270.857C30.3609 270.467 30.2021 269.993 30.0927 269.436C29.9833 268.878 29.9286 268.227 29.9286 267.482V265.748C29.9286 264.816 30.012 264.035 30.1786 263.404C30.3505 262.774 30.5927 262.269 30.9052 261.889C31.2177 261.503 31.5927 261.227 32.0302 261.061C32.4729 260.894 32.9677 260.811 33.5146 260.811C33.9573 260.811 34.3635 260.865 34.7333 260.975C35.1083 261.079 35.4417 261.248 35.7333 261.482C36.025 261.712 36.2724 262.019 36.4755 262.404C36.6838 262.785 36.8427 263.251 36.9521 263.803C37.0614 264.355 37.1161 265.003 37.1161 265.748ZM35.663 267.717V265.506C35.663 264.995 35.6318 264.548 35.5693 264.162C35.512 263.771 35.426 263.438 35.3114 263.162C35.1969 262.886 35.051 262.662 34.8739 262.49C34.7021 262.318 34.5016 262.193 34.2724 262.115C34.0484 262.032 33.7958 261.99 33.5146 261.99C33.1708 261.99 32.8661 262.055 32.6005 262.186C32.3349 262.311 32.1109 262.511 31.9286 262.787C31.7516 263.063 31.6161 263.425 31.5224 263.873C31.4286 264.321 31.3818 264.865 31.3818 265.506V267.717C31.3818 268.227 31.4104 268.678 31.4677 269.068C31.5302 269.459 31.6213 269.798 31.7411 270.084C31.8609 270.365 32.0068 270.597 32.1786 270.779C32.3505 270.962 32.5484 271.097 32.7724 271.186C33.0016 271.269 33.2542 271.311 33.5302 271.311C33.8844 271.311 34.1943 271.243 34.4599 271.107C34.7255 270.972 34.9469 270.761 35.1239 270.475C35.3062 270.183 35.4417 269.811 35.5302 269.357C35.6187 268.899 35.663 268.352 35.663 267.717ZM44.5536 260.342V272.342H43.1005V260.342H44.5536ZM49.7177 263.889L46.0302 267.834L43.9677 269.975L43.8505 268.436L45.3271 266.67L47.9521 263.889H49.7177ZM48.3974 272.342L45.3818 268.311L46.1318 267.021L50.1005 272.342H48.3974Z" fill="#6A80E4"/>
<path d="M23.0849 307.721H24.1161C24.6213 307.721 25.038 307.637 25.3661 307.471C25.6995 307.299 25.9469 307.067 26.1083 306.775C26.275 306.479 26.3583 306.145 26.3583 305.775C26.3583 305.338 26.2854 304.971 26.1396 304.674C25.9937 304.377 25.775 304.153 25.4833 304.002C25.1917 303.851 24.8219 303.775 24.3739 303.775C23.9677 303.775 23.6083 303.856 23.2958 304.018C22.9885 304.174 22.7463 304.398 22.5693 304.689C22.3974 304.981 22.3114 305.325 22.3114 305.721H20.8661C20.8661 305.143 21.012 304.617 21.3036 304.143C21.5953 303.669 22.0042 303.291 22.5302 303.01C23.0614 302.729 23.676 302.588 24.3739 302.588C25.0614 302.588 25.663 302.71 26.1786 302.955C26.6943 303.195 27.0953 303.554 27.3818 304.033C27.6682 304.507 27.8114 305.098 27.8114 305.807C27.8114 306.093 27.7437 306.4 27.6083 306.729C27.4781 307.051 27.2724 307.354 26.9911 307.635C26.7151 307.916 26.3557 308.148 25.913 308.33C25.4703 308.507 24.9391 308.596 24.3193 308.596H23.0849V307.721ZM23.0849 308.908V308.041H24.3193C25.0432 308.041 25.6422 308.127 26.1161 308.299C26.5901 308.471 26.9625 308.7 27.2333 308.986C27.5094 309.273 27.7021 309.588 27.8114 309.932C27.926 310.27 27.9833 310.609 27.9833 310.947C27.9833 311.479 27.8922 311.95 27.7099 312.361C27.5328 312.773 27.2802 313.122 26.9521 313.408C26.6292 313.695 26.2489 313.911 25.8114 314.057C25.3739 314.202 24.8974 314.275 24.3818 314.275C23.887 314.275 23.4208 314.205 22.9833 314.064C22.551 313.924 22.1682 313.721 21.8349 313.455C21.5016 313.184 21.2411 312.854 21.0536 312.463C20.8661 312.067 20.7724 311.617 20.7724 311.111H22.2177C22.2177 311.507 22.3036 311.854 22.4755 312.15C22.6526 312.447 22.9026 312.679 23.2255 312.846C23.5536 313.007 23.9391 313.088 24.3818 313.088C24.8245 313.088 25.2047 313.012 25.5224 312.861C25.8453 312.705 26.0927 312.471 26.2646 312.158C26.4417 311.846 26.5302 311.452 26.5302 310.979C26.5302 310.505 26.4312 310.117 26.2333 309.814C26.0354 309.507 25.7542 309.281 25.3896 309.135C25.0302 308.984 24.6057 308.908 24.1161 308.908H23.0849ZM37.1161 307.525V309.26C37.1161 310.192 37.0328 310.979 36.8661 311.619C36.6995 312.26 36.4599 312.775 36.1474 313.166C35.8349 313.557 35.4573 313.84 35.0146 314.018C34.5771 314.189 34.0823 314.275 33.5302 314.275C33.0927 314.275 32.6891 314.221 32.3193 314.111C31.9495 314.002 31.6161 313.827 31.3193 313.588C31.0276 313.343 30.7776 313.025 30.5693 312.635C30.3609 312.244 30.2021 311.77 30.0927 311.213C29.9833 310.656 29.9286 310.005 29.9286 309.26V307.525C29.9286 306.593 30.012 305.812 30.1786 305.182C30.3505 304.551 30.5927 304.046 30.9052 303.666C31.2177 303.281 31.5927 303.005 32.0302 302.838C32.4729 302.671 32.9677 302.588 33.5146 302.588C33.9573 302.588 34.3635 302.643 34.7333 302.752C35.1083 302.856 35.4417 303.025 35.7333 303.26C36.025 303.489 36.2724 303.796 36.4755 304.182C36.6838 304.562 36.8427 305.028 36.9521 305.58C37.0614 306.132 37.1161 306.781 37.1161 307.525ZM35.663 309.494V307.283C35.663 306.773 35.6318 306.325 35.5693 305.939C35.512 305.549 35.426 305.215 35.3114 304.939C35.1969 304.663 35.051 304.439 34.8739 304.268C34.7021 304.096 34.5016 303.971 34.2724 303.893C34.0484 303.809 33.7958 303.768 33.5146 303.768C33.1708 303.768 32.8661 303.833 32.6005 303.963C32.3349 304.088 32.1109 304.288 31.9286 304.564C31.7516 304.84 31.6161 305.202 31.5224 305.65C31.4286 306.098 31.3818 306.643 31.3818 307.283V309.494C31.3818 310.005 31.4104 310.455 31.4677 310.846C31.5302 311.236 31.6213 311.575 31.7411 311.861C31.8609 312.143 32.0068 312.374 32.1786 312.557C32.3505 312.739 32.5484 312.874 32.7724 312.963C33.0016 313.046 33.2542 313.088 33.5302 313.088C33.8844 313.088 34.1943 313.02 34.4599 312.885C34.7255 312.749 34.9469 312.538 35.1239 312.252C35.3062 311.96 35.4417 311.588 35.5302 311.135C35.6187 310.676 35.663 310.13 35.663 309.494ZM44.5536 302.119V314.119H43.1005V302.119H44.5536ZM49.7177 305.666L46.0302 309.611L43.9677 311.752L43.8505 310.213L45.3271 308.447L47.9521 305.666H49.7177ZM48.3974 314.119L45.3818 310.088L46.1318 308.799L50.1005 314.119H48.3974Z" fill="#6A80E4"/>
<path d="M28.4286 354.711V355.898H20.9833V354.859L24.7099 350.711C25.1682 350.201 25.5224 349.768 25.7724 349.414C26.0276 349.055 26.2047 348.734 26.3036 348.453C26.4078 348.167 26.4599 347.875 26.4599 347.578C26.4599 347.203 26.3818 346.865 26.2255 346.562C26.0745 346.255 25.8505 346.01 25.5536 345.828C25.2568 345.646 24.8974 345.555 24.4755 345.555C23.9703 345.555 23.5484 345.654 23.2099 345.852C22.8766 346.044 22.6266 346.315 22.4599 346.664C22.2932 347.013 22.2099 347.414 22.2099 347.867H20.7646C20.7646 347.227 20.9052 346.641 21.1864 346.109C21.4677 345.578 21.8844 345.156 22.4364 344.844C22.9885 344.526 23.6682 344.367 24.4755 344.367C25.1943 344.367 25.8088 344.495 26.3193 344.75C26.8297 345 27.2203 345.354 27.4911 345.812C27.7672 346.266 27.9052 346.797 27.9052 347.406C27.9052 347.74 27.8479 348.078 27.7333 348.422C27.6239 348.76 27.4703 349.099 27.2724 349.438C27.0797 349.776 26.8531 350.109 26.5927 350.438C26.3375 350.766 26.0641 351.089 25.7724 351.406L22.7255 354.711H28.4286ZM37.1161 349.305V351.039C37.1161 351.971 37.0328 352.758 36.8661 353.398C36.6995 354.039 36.4599 354.555 36.1474 354.945C35.8349 355.336 35.4573 355.62 35.0146 355.797C34.5771 355.969 34.0823 356.055 33.5302 356.055C33.0927 356.055 32.6891 356 32.3193 355.891C31.9495 355.781 31.6161 355.607 31.3193 355.367C31.0276 355.122 30.7776 354.805 30.5693 354.414C30.3609 354.023 30.2021 353.549 30.0927 352.992C29.9833 352.435 29.9286 351.784 29.9286 351.039V349.305C29.9286 348.372 30.012 347.591 30.1786 346.961C30.3505 346.331 30.5927 345.826 30.9052 345.445C31.2177 345.06 31.5927 344.784 32.0302 344.617C32.4729 344.451 32.9677 344.367 33.5146 344.367C33.9573 344.367 34.3635 344.422 34.7333 344.531C35.1083 344.635 35.4417 344.805 35.7333 345.039C36.025 345.268 36.2724 345.576 36.4755 345.961C36.6838 346.341 36.8427 346.807 36.9521 347.359C37.0614 347.911 37.1161 348.56 37.1161 349.305ZM35.663 351.273V349.062C35.663 348.552 35.6318 348.104 35.5693 347.719C35.512 347.328 35.426 346.995 35.3114 346.719C35.1969 346.443 35.051 346.219 34.8739 346.047C34.7021 345.875 34.5016 345.75 34.2724 345.672C34.0484 345.589 33.7958 345.547 33.5146 345.547C33.1708 345.547 32.8661 345.612 32.6005 345.742C32.3349 345.867 32.1109 346.068 31.9286 346.344C31.7516 346.62 31.6161 346.982 31.5224 347.43C31.4286 347.878 31.3818 348.422 31.3818 349.062V351.273C31.3818 351.784 31.4104 352.234 31.4677 352.625C31.5302 353.016 31.6213 353.354 31.7411 353.641C31.8609 353.922 32.0068 354.154 32.1786 354.336C32.3505 354.518 32.5484 354.654 32.7724 354.742C33.0016 354.826 33.2542 354.867 33.5302 354.867C33.8844 354.867 34.1943 354.799 34.4599 354.664C34.7255 354.529 34.9469 354.318 35.1239 354.031C35.3062 353.74 35.4417 353.367 35.5302 352.914C35.6187 352.456 35.663 351.909 35.663 351.273ZM44.5536 343.898V355.898H43.1005V343.898H44.5536ZM49.7177 347.445L46.0302 351.391L43.9677 353.531L43.8505 351.992L45.3271 350.227L47.9521 347.445H49.7177ZM48.3974 355.898L45.3818 351.867L46.1318 350.578L50.1005 355.898H48.3974Z" fill="#6A80E4"/>
<path d="M25.7255 386.238V397.676H24.2802V388.043L21.3661 389.105V387.801L25.4989 386.238H25.7255ZM37.1161 391.082V392.816C37.1161 393.749 37.0328 394.535 36.8661 395.176C36.6995 395.816 36.4599 396.332 36.1474 396.723C35.8349 397.113 35.4573 397.397 35.0146 397.574C34.5771 397.746 34.0823 397.832 33.5302 397.832C33.0927 397.832 32.6891 397.777 32.3193 397.668C31.9495 397.559 31.6161 397.384 31.3193 397.145C31.0276 396.9 30.7776 396.582 30.5693 396.191C30.3609 395.801 30.2021 395.327 30.0927 394.77C29.9833 394.212 29.9286 393.561 29.9286 392.816V391.082C29.9286 390.15 30.012 389.368 30.1786 388.738C30.3505 388.108 30.5927 387.603 30.9052 387.223C31.2177 386.837 31.5927 386.561 32.0302 386.395C32.4729 386.228 32.9677 386.145 33.5146 386.145C33.9573 386.145 34.3635 386.199 34.7333 386.309C35.1083 386.413 35.4417 386.582 35.7333 386.816C36.025 387.046 36.2724 387.353 36.4755 387.738C36.6838 388.118 36.8427 388.585 36.9521 389.137C37.0614 389.689 37.1161 390.337 37.1161 391.082ZM35.663 393.051V390.84C35.663 390.329 35.6318 389.882 35.5693 389.496C35.512 389.105 35.426 388.772 35.3114 388.496C35.1969 388.22 35.051 387.996 34.8739 387.824C34.7021 387.652 34.5016 387.527 34.2724 387.449C34.0484 387.366 33.7958 387.324 33.5146 387.324C33.1708 387.324 32.8661 387.389 32.6005 387.52C32.3349 387.645 32.1109 387.845 31.9286 388.121C31.7516 388.397 31.6161 388.759 31.5224 389.207C31.4286 389.655 31.3818 390.199 31.3818 390.84V393.051C31.3818 393.561 31.4104 394.012 31.4677 394.402C31.5302 394.793 31.6213 395.132 31.7411 395.418C31.8609 395.699 32.0068 395.931 32.1786 396.113C32.3505 396.296 32.5484 396.431 32.7724 396.52C33.0016 396.603 33.2542 396.645 33.5302 396.645C33.8844 396.645 34.1943 396.577 34.4599 396.441C34.7255 396.306 34.9469 396.095 35.1239 395.809C35.3062 395.517 35.4417 395.145 35.5302 394.691C35.6187 394.233 35.663 393.686 35.663 393.051ZM44.5536 385.676V397.676H43.1005V385.676H44.5536ZM49.7177 389.223L46.0302 393.168L43.9677 395.309L43.8505 393.77L45.3271 392.004L47.9521 389.223H49.7177ZM48.3974 397.676L45.3818 393.645L46.1318 392.355L50.1005 397.676H48.3974Z" fill="#6A80E4"/>
<path d="M190.688 434.004V435.191H183.242V434.152L186.969 430.004C187.427 429.493 187.781 429.061 188.031 428.707C188.286 428.348 188.464 428.027 188.562 427.746C188.667 427.46 188.719 427.168 188.719 426.871C188.719 426.496 188.641 426.158 188.484 425.855C188.333 425.548 188.109 425.303 187.812 425.121C187.516 424.939 187.156 424.848 186.734 424.848C186.229 424.848 185.807 424.947 185.469 425.145C185.135 425.337 184.885 425.608 184.719 425.957C184.552 426.306 184.469 426.707 184.469 427.16H183.023C183.023 426.52 183.164 425.934 183.445 425.402C183.727 424.871 184.143 424.449 184.695 424.137C185.247 423.819 185.927 423.66 186.734 423.66C187.453 423.66 188.068 423.788 188.578 424.043C189.089 424.293 189.479 424.647 189.75 425.105C190.026 425.559 190.164 426.09 190.164 426.699C190.164 427.033 190.107 427.371 189.992 427.715C189.883 428.053 189.729 428.392 189.531 428.73C189.339 429.069 189.112 429.402 188.852 429.73C188.596 430.059 188.323 430.382 188.031 430.699L184.984 434.004H190.688ZM199.375 428.598V430.332C199.375 431.264 199.292 432.051 199.125 432.691C198.958 433.332 198.719 433.848 198.406 434.238C198.094 434.629 197.716 434.913 197.273 435.09C196.836 435.262 196.341 435.348 195.789 435.348C195.352 435.348 194.948 435.293 194.578 435.184C194.208 435.074 193.875 434.9 193.578 434.66C193.286 434.415 193.036 434.098 192.828 433.707C192.62 433.316 192.461 432.842 192.352 432.285C192.242 431.728 192.188 431.077 192.188 430.332V428.598C192.188 427.665 192.271 426.884 192.438 426.254C192.609 425.624 192.852 425.118 193.164 424.738C193.477 424.353 193.852 424.077 194.289 423.91C194.732 423.743 195.227 423.66 195.773 423.66C196.216 423.66 196.622 423.715 196.992 423.824C197.367 423.928 197.701 424.098 197.992 424.332C198.284 424.561 198.531 424.868 198.734 425.254C198.943 425.634 199.102 426.1 199.211 426.652C199.32 427.204 199.375 427.853 199.375 428.598ZM197.922 430.566V428.355C197.922 427.845 197.891 427.397 197.828 427.012C197.771 426.621 197.685 426.288 197.57 426.012C197.456 425.736 197.31 425.512 197.133 425.34C196.961 425.168 196.76 425.043 196.531 424.965C196.307 424.882 196.055 424.84 195.773 424.84C195.43 424.84 195.125 424.905 194.859 425.035C194.594 425.16 194.37 425.361 194.188 425.637C194.01 425.913 193.875 426.275 193.781 426.723C193.688 427.171 193.641 427.715 193.641 428.355V430.566C193.641 431.077 193.669 431.527 193.727 431.918C193.789 432.309 193.88 432.647 194 432.934C194.12 433.215 194.266 433.447 194.438 433.629C194.609 433.811 194.807 433.947 195.031 434.035C195.26 434.118 195.513 434.16 195.789 434.16C196.143 434.16 196.453 434.092 196.719 433.957C196.984 433.822 197.206 433.611 197.383 433.324C197.565 433.033 197.701 432.66 197.789 432.207C197.878 431.749 197.922 431.202 197.922 430.566ZM208.375 428.598V430.332C208.375 431.264 208.292 432.051 208.125 432.691C207.958 433.332 207.719 433.848 207.406 434.238C207.094 434.629 206.716 434.913 206.273 435.09C205.836 435.262 205.341 435.348 204.789 435.348C204.352 435.348 203.948 435.293 203.578 435.184C203.208 435.074 202.875 434.9 202.578 434.66C202.286 434.415 202.036 434.098 201.828 433.707C201.62 433.316 201.461 432.842 201.352 432.285C201.242 431.728 201.188 431.077 201.188 430.332V428.598C201.188 427.665 201.271 426.884 201.438 426.254C201.609 425.624 201.852 425.118 202.164 424.738C202.477 424.353 202.852 424.077 203.289 423.91C203.732 423.743 204.227 423.66 204.773 423.66C205.216 423.66 205.622 423.715 205.992 423.824C206.367 423.928 206.701 424.098 206.992 424.332C207.284 424.561 207.531 424.868 207.734 425.254C207.943 425.634 208.102 426.1 208.211 426.652C208.32 427.204 208.375 427.853 208.375 428.598ZM206.922 430.566V428.355C206.922 427.845 206.891 427.397 206.828 427.012C206.771 426.621 206.685 426.288 206.57 426.012C206.456 425.736 206.31 425.512 206.133 425.34C205.961 425.168 205.76 425.043 205.531 424.965C205.307 424.882 205.055 424.84 204.773 424.84C204.43 424.84 204.125 424.905 203.859 425.035C203.594 425.16 203.37 425.361 203.188 425.637C203.01 425.913 202.875 426.275 202.781 426.723C202.688 427.171 202.641 427.715 202.641 428.355V430.566C202.641 431.077 202.669 431.527 202.727 431.918C202.789 432.309 202.88 432.647 203 432.934C203.12 433.215 203.266 433.447 203.438 433.629C203.609 433.811 203.807 433.947 204.031 434.035C204.26 434.118 204.513 434.16 204.789 434.16C205.143 434.16 205.453 434.092 205.719 433.957C205.984 433.822 206.206 433.611 206.383 433.324C206.565 433.033 206.701 432.66 206.789 432.207C206.878 431.749 206.922 431.202 206.922 430.566ZM212.062 429.777L210.906 429.48L211.477 423.816H217.312V425.152H212.703L212.359 428.246C212.568 428.126 212.831 428.014 213.148 427.91C213.471 427.806 213.841 427.754 214.258 427.754C214.784 427.754 215.255 427.845 215.672 428.027C216.089 428.204 216.443 428.46 216.734 428.793C217.031 429.126 217.258 429.527 217.414 429.996C217.57 430.465 217.648 430.988 217.648 431.566C217.648 432.113 217.573 432.616 217.422 433.074C217.276 433.533 217.055 433.934 216.758 434.277C216.461 434.616 216.086 434.879 215.633 435.066C215.185 435.254 214.656 435.348 214.047 435.348C213.589 435.348 213.154 435.285 212.742 435.16C212.336 435.03 211.971 434.835 211.648 434.574C211.331 434.309 211.07 433.98 210.867 433.59C210.669 433.194 210.544 432.73 210.492 432.199H211.867C211.93 432.626 212.055 432.986 212.242 433.277C212.43 433.569 212.674 433.79 212.977 433.941C213.284 434.087 213.641 434.16 214.047 434.16C214.391 434.16 214.695 434.1 214.961 433.98C215.227 433.861 215.451 433.689 215.633 433.465C215.815 433.241 215.953 432.97 216.047 432.652C216.146 432.335 216.195 431.978 216.195 431.582C216.195 431.223 216.146 430.889 216.047 430.582C215.948 430.275 215.799 430.007 215.602 429.777C215.409 429.548 215.172 429.371 214.891 429.246C214.609 429.116 214.286 429.051 213.922 429.051C213.438 429.051 213.07 429.116 212.82 429.246C212.576 429.376 212.323 429.553 212.062 429.777Z" fill="#6A80E4"/>
<path d="M296.09 434.004V435.191H288.645V434.152L292.371 430.004C292.829 429.493 293.184 429.061 293.434 428.707C293.689 428.348 293.866 428.027 293.965 427.746C294.069 427.46 294.121 427.168 294.121 426.871C294.121 426.496 294.043 426.158 293.887 425.855C293.736 425.548 293.512 425.303 293.215 425.121C292.918 424.939 292.559 424.848 292.137 424.848C291.632 424.848 291.21 424.947 290.871 425.145C290.538 425.337 290.288 425.608 290.121 425.957C289.954 426.306 289.871 426.707 289.871 427.16H288.426C288.426 426.52 288.566 425.934 288.848 425.402C289.129 424.871 289.546 424.449 290.098 424.137C290.65 423.819 291.329 423.66 292.137 423.66C292.855 423.66 293.47 423.788 293.98 424.043C294.491 424.293 294.882 424.647 295.152 425.105C295.428 425.559 295.566 426.09 295.566 426.699C295.566 427.033 295.509 427.371 295.395 427.715C295.285 428.053 295.132 428.392 294.934 428.73C294.741 429.069 294.514 429.402 294.254 429.73C293.999 430.059 293.725 430.382 293.434 430.699L290.387 434.004H296.09ZM304.777 428.598V430.332C304.777 431.264 304.694 432.051 304.527 432.691C304.361 433.332 304.121 433.848 303.809 434.238C303.496 434.629 303.118 434.913 302.676 435.09C302.238 435.262 301.743 435.348 301.191 435.348C300.754 435.348 300.35 435.293 299.98 435.184C299.611 435.074 299.277 434.9 298.98 434.66C298.689 434.415 298.439 434.098 298.23 433.707C298.022 433.316 297.863 432.842 297.754 432.285C297.645 431.728 297.59 431.077 297.59 430.332V428.598C297.59 427.665 297.673 426.884 297.84 426.254C298.012 425.624 298.254 425.118 298.566 424.738C298.879 424.353 299.254 424.077 299.691 423.91C300.134 423.743 300.629 423.66 301.176 423.66C301.618 423.66 302.025 423.715 302.395 423.824C302.77 423.928 303.103 424.098 303.395 424.332C303.686 424.561 303.934 424.868 304.137 425.254C304.345 425.634 304.504 426.1 304.613 426.652C304.723 427.204 304.777 427.853 304.777 428.598ZM303.324 430.566V428.355C303.324 427.845 303.293 427.397 303.23 427.012C303.173 426.621 303.087 426.288 302.973 426.012C302.858 425.736 302.712 425.512 302.535 425.34C302.363 425.168 302.163 425.043 301.934 424.965C301.71 424.882 301.457 424.84 301.176 424.84C300.832 424.84 300.527 424.905 300.262 425.035C299.996 425.16 299.772 425.361 299.59 425.637C299.413 425.913 299.277 426.275 299.184 426.723C299.09 427.171 299.043 427.715 299.043 428.355V430.566C299.043 431.077 299.072 431.527 299.129 431.918C299.191 432.309 299.283 432.647 299.402 432.934C299.522 433.215 299.668 433.447 299.84 433.629C300.012 433.811 300.21 433.947 300.434 434.035C300.663 434.118 300.915 434.16 301.191 434.16C301.546 434.16 301.855 434.092 302.121 433.957C302.387 433.822 302.608 433.611 302.785 433.324C302.967 433.033 303.103 432.66 303.191 432.207C303.28 431.749 303.324 431.202 303.324 430.566ZM311.387 423.754V435.191H309.941V425.559L307.027 426.621V425.316L311.16 423.754H311.387ZM322.777 428.598V430.332C322.777 431.264 322.694 432.051 322.527 432.691C322.361 433.332 322.121 433.848 321.809 434.238C321.496 434.629 321.118 434.913 320.676 435.09C320.238 435.262 319.743 435.348 319.191 435.348C318.754 435.348 318.35 435.293 317.98 435.184C317.611 435.074 317.277 434.9 316.98 434.66C316.689 434.415 316.439 434.098 316.23 433.707C316.022 433.316 315.863 432.842 315.754 432.285C315.645 431.728 315.59 431.077 315.59 430.332V428.598C315.59 427.665 315.673 426.884 315.84 426.254C316.012 425.624 316.254 425.118 316.566 424.738C316.879 424.353 317.254 424.077 317.691 423.91C318.134 423.743 318.629 423.66 319.176 423.66C319.618 423.66 320.025 423.715 320.395 423.824C320.77 423.928 321.103 424.098 321.395 424.332C321.686 424.561 321.934 424.868 322.137 425.254C322.345 425.634 322.504 426.1 322.613 426.652C322.723 427.204 322.777 427.853 322.777 428.598ZM321.324 430.566V428.355C321.324 427.845 321.293 427.397 321.23 427.012C321.173 426.621 321.087 426.288 320.973 426.012C320.858 425.736 320.712 425.512 320.535 425.34C320.363 425.168 320.163 425.043 319.934 424.965C319.71 424.882 319.457 424.84 319.176 424.84C318.832 424.84 318.527 424.905 318.262 425.035C317.996 425.16 317.772 425.361 317.59 425.637C317.413 425.913 317.277 426.275 317.184 426.723C317.09 427.171 317.043 427.715 317.043 428.355V430.566C317.043 431.077 317.072 431.527 317.129 431.918C317.191 432.309 317.283 432.647 317.402 432.934C317.522 433.215 317.668 433.447 317.84 433.629C318.012 433.811 318.21 433.947 318.434 434.035C318.663 434.118 318.915 434.16 319.191 434.16C319.546 434.16 319.855 434.092 320.121 433.957C320.387 433.822 320.608 433.611 320.785 433.324C320.967 433.033 321.103 432.66 321.191 432.207C321.28 431.749 321.324 431.202 321.324 430.566Z" fill="#6A80E4"/>
<path d="M401.488 434.004V435.191H394.043V434.152L397.77 430.004C398.228 429.493 398.582 429.061 398.832 428.707C399.087 428.348 399.264 428.027 399.363 427.746C399.467 427.46 399.52 427.168 399.52 426.871C399.52 426.496 399.441 426.158 399.285 425.855C399.134 425.548 398.91 425.303 398.613 425.121C398.316 424.939 397.957 424.848 397.535 424.848C397.03 424.848 396.608 424.947 396.27 425.145C395.936 425.337 395.686 425.608 395.52 425.957C395.353 426.306 395.27 426.707 395.27 427.16H393.824C393.824 426.52 393.965 425.934 394.246 425.402C394.527 424.871 394.944 424.449 395.496 424.137C396.048 423.819 396.728 423.66 397.535 423.66C398.254 423.66 398.868 423.788 399.379 424.043C399.889 424.293 400.28 424.647 400.551 425.105C400.827 425.559 400.965 426.09 400.965 426.699C400.965 427.033 400.908 427.371 400.793 427.715C400.684 428.053 400.53 428.392 400.332 428.73C400.139 429.069 399.913 429.402 399.652 429.73C399.397 430.059 399.124 430.382 398.832 430.699L395.785 434.004H401.488ZM410.176 428.598V430.332C410.176 431.264 410.092 432.051 409.926 432.691C409.759 433.332 409.52 433.848 409.207 434.238C408.895 434.629 408.517 434.913 408.074 435.09C407.637 435.262 407.142 435.348 406.59 435.348C406.152 435.348 405.749 435.293 405.379 435.184C405.009 435.074 404.676 434.9 404.379 434.66C404.087 434.415 403.837 434.098 403.629 433.707C403.421 433.316 403.262 432.842 403.152 432.285C403.043 431.728 402.988 431.077 402.988 430.332V428.598C402.988 427.665 403.072 426.884 403.238 426.254C403.41 425.624 403.652 425.118 403.965 424.738C404.277 424.353 404.652 424.077 405.09 423.91C405.533 423.743 406.027 423.66 406.574 423.66C407.017 423.66 407.423 423.715 407.793 423.824C408.168 423.928 408.501 424.098 408.793 424.332C409.085 424.561 409.332 424.868 409.535 425.254C409.743 425.634 409.902 426.1 410.012 426.652C410.121 427.204 410.176 427.853 410.176 428.598ZM408.723 430.566V428.355C408.723 427.845 408.691 427.397 408.629 427.012C408.572 426.621 408.486 426.288 408.371 426.012C408.257 425.736 408.111 425.512 407.934 425.34C407.762 425.168 407.561 425.043 407.332 424.965C407.108 424.882 406.855 424.84 406.574 424.84C406.23 424.84 405.926 424.905 405.66 425.035C405.395 425.16 405.171 425.361 404.988 425.637C404.811 425.913 404.676 426.275 404.582 426.723C404.488 427.171 404.441 427.715 404.441 428.355V430.566C404.441 431.077 404.47 431.527 404.527 431.918C404.59 432.309 404.681 432.647 404.801 432.934C404.921 433.215 405.066 433.447 405.238 433.629C405.41 433.811 405.608 433.947 405.832 434.035C406.061 434.118 406.314 434.16 406.59 434.16C406.944 434.16 407.254 434.092 407.52 433.957C407.785 433.822 408.007 433.611 408.184 433.324C408.366 433.033 408.501 432.66 408.59 432.207C408.678 431.749 408.723 431.202 408.723 430.566ZM416.785 423.754V435.191H415.34V425.559L412.426 426.621V425.316L416.559 423.754H416.785ZM422.863 429.777L421.707 429.48L422.277 423.816H428.113V425.152H423.504L423.16 428.246C423.368 428.126 423.632 428.014 423.949 427.91C424.272 427.806 424.642 427.754 425.059 427.754C425.585 427.754 426.056 427.845 426.473 428.027C426.889 428.204 427.243 428.46 427.535 428.793C427.832 429.126 428.059 429.527 428.215 429.996C428.371 430.465 428.449 430.988 428.449 431.566C428.449 432.113 428.374 432.616 428.223 433.074C428.077 433.533 427.855 433.934 427.559 434.277C427.262 434.616 426.887 434.879 426.434 435.066C425.986 435.254 425.457 435.348 424.848 435.348C424.389 435.348 423.954 435.285 423.543 435.16C423.137 435.03 422.772 434.835 422.449 434.574C422.132 434.309 421.871 433.98 421.668 433.59C421.47 433.194 421.345 432.73 421.293 432.199H422.668C422.73 432.626 422.855 432.986 423.043 433.277C423.23 433.569 423.475 433.79 423.777 433.941C424.085 434.087 424.441 434.16 424.848 434.16C425.191 434.16 425.496 434.1 425.762 433.98C426.027 433.861 426.251 433.689 426.434 433.465C426.616 433.241 426.754 432.97 426.848 432.652C426.947 432.335 426.996 431.978 426.996 431.582C426.996 431.223 426.947 430.889 426.848 430.582C426.749 430.275 426.6 430.007 426.402 429.777C426.21 429.548 425.973 429.371 425.691 429.246C425.41 429.116 425.087 429.051 424.723 429.051C424.238 429.051 423.871 429.116 423.621 429.246C423.376 429.376 423.124 429.553 422.863 429.777Z" fill="#6A80E4"/>
<path d="M506.891 434.004V435.191H499.445V434.152L503.172 430.004C503.63 429.493 503.984 429.061 504.234 428.707C504.49 428.348 504.667 428.027 504.766 427.746C504.87 427.46 504.922 427.168 504.922 426.871C504.922 426.496 504.844 426.158 504.688 425.855C504.536 425.548 504.312 425.303 504.016 425.121C503.719 424.939 503.359 424.848 502.938 424.848C502.432 424.848 502.01 424.947 501.672 425.145C501.339 425.337 501.089 425.608 500.922 425.957C500.755 426.306 500.672 426.707 500.672 427.16H499.227C499.227 426.52 499.367 425.934 499.648 425.402C499.93 424.871 500.346 424.449 500.898 424.137C501.451 423.819 502.13 423.66 502.938 423.66C503.656 423.66 504.271 423.788 504.781 424.043C505.292 424.293 505.682 424.647 505.953 425.105C506.229 425.559 506.367 426.09 506.367 426.699C506.367 427.033 506.31 427.371 506.195 427.715C506.086 428.053 505.932 428.392 505.734 428.73C505.542 429.069 505.315 429.402 505.055 429.73C504.799 430.059 504.526 430.382 504.234 430.699L501.188 434.004H506.891ZM515.578 428.598V430.332C515.578 431.264 515.495 432.051 515.328 432.691C515.161 433.332 514.922 433.848 514.609 434.238C514.297 434.629 513.919 434.913 513.477 435.09C513.039 435.262 512.544 435.348 511.992 435.348C511.555 435.348 511.151 435.293 510.781 435.184C510.411 435.074 510.078 434.9 509.781 434.66C509.49 434.415 509.24 434.098 509.031 433.707C508.823 433.316 508.664 432.842 508.555 432.285C508.445 431.728 508.391 431.077 508.391 430.332V428.598C508.391 427.665 508.474 426.884 508.641 426.254C508.812 425.624 509.055 425.118 509.367 424.738C509.68 424.353 510.055 424.077 510.492 423.91C510.935 423.743 511.43 423.66 511.977 423.66C512.419 423.66 512.826 423.715 513.195 423.824C513.57 423.928 513.904 424.098 514.195 424.332C514.487 424.561 514.734 424.868 514.938 425.254C515.146 425.634 515.305 426.1 515.414 426.652C515.523 427.204 515.578 427.853 515.578 428.598ZM514.125 430.566V428.355C514.125 427.845 514.094 427.397 514.031 427.012C513.974 426.621 513.888 426.288 513.773 426.012C513.659 425.736 513.513 425.512 513.336 425.34C513.164 425.168 512.964 425.043 512.734 424.965C512.51 424.882 512.258 424.84 511.977 424.84C511.633 424.84 511.328 424.905 511.062 425.035C510.797 425.16 510.573 425.361 510.391 425.637C510.214 425.913 510.078 426.275 509.984 426.723C509.891 427.171 509.844 427.715 509.844 428.355V430.566C509.844 431.077 509.872 431.527 509.93 431.918C509.992 432.309 510.083 432.647 510.203 432.934C510.323 433.215 510.469 433.447 510.641 433.629C510.812 433.811 511.01 433.947 511.234 434.035C511.464 434.118 511.716 434.16 511.992 434.16C512.346 434.16 512.656 434.092 512.922 433.957C513.188 433.822 513.409 433.611 513.586 433.324C513.768 433.033 513.904 432.66 513.992 432.207C514.081 431.749 514.125 431.202 514.125 430.566ZM524.891 434.004V435.191H517.445V434.152L521.172 430.004C521.63 429.493 521.984 429.061 522.234 428.707C522.49 428.348 522.667 428.027 522.766 427.746C522.87 427.46 522.922 427.168 522.922 426.871C522.922 426.496 522.844 426.158 522.688 425.855C522.536 425.548 522.312 425.303 522.016 425.121C521.719 424.939 521.359 424.848 520.938 424.848C520.432 424.848 520.01 424.947 519.672 425.145C519.339 425.337 519.089 425.608 518.922 425.957C518.755 426.306 518.672 426.707 518.672 427.16H517.227C517.227 426.52 517.367 425.934 517.648 425.402C517.93 424.871 518.346 424.449 518.898 424.137C519.451 423.819 520.13 423.66 520.938 423.66C521.656 423.66 522.271 423.788 522.781 424.043C523.292 424.293 523.682 424.647 523.953 425.105C524.229 425.559 524.367 426.09 524.367 426.699C524.367 427.033 524.31 427.371 524.195 427.715C524.086 428.053 523.932 428.392 523.734 428.73C523.542 429.069 523.315 429.402 523.055 429.73C522.799 430.059 522.526 430.382 522.234 430.699L519.188 434.004H524.891ZM533.578 428.598V430.332C533.578 431.264 533.495 432.051 533.328 432.691C533.161 433.332 532.922 433.848 532.609 434.238C532.297 434.629 531.919 434.913 531.477 435.09C531.039 435.262 530.544 435.348 529.992 435.348C529.555 435.348 529.151 435.293 528.781 435.184C528.411 435.074 528.078 434.9 527.781 434.66C527.49 434.415 527.24 434.098 527.031 433.707C526.823 433.316 526.664 432.842 526.555 432.285C526.445 431.728 526.391 431.077 526.391 430.332V428.598C526.391 427.665 526.474 426.884 526.641 426.254C526.812 425.624 527.055 425.118 527.367 424.738C527.68 424.353 528.055 424.077 528.492 423.91C528.935 423.743 529.43 423.66 529.977 423.66C530.419 423.66 530.826 423.715 531.195 423.824C531.57 423.928 531.904 424.098 532.195 424.332C532.487 424.561 532.734 424.868 532.938 425.254C533.146 425.634 533.305 426.1 533.414 426.652C533.523 427.204 533.578 427.853 533.578 428.598ZM532.125 430.566V428.355C532.125 427.845 532.094 427.397 532.031 427.012C531.974 426.621 531.888 426.288 531.773 426.012C531.659 425.736 531.513 425.512 531.336 425.34C531.164 425.168 530.964 425.043 530.734 424.965C530.51 424.882 530.258 424.84 529.977 424.84C529.633 424.84 529.328 424.905 529.062 425.035C528.797 425.16 528.573 425.361 528.391 425.637C528.214 425.913 528.078 426.275 527.984 426.723C527.891 427.171 527.844 427.715 527.844 428.355V430.566C527.844 431.077 527.872 431.527 527.93 431.918C527.992 432.309 528.083 432.647 528.203 432.934C528.323 433.215 528.469 433.447 528.641 433.629C528.812 433.811 529.01 433.947 529.234 434.035C529.464 434.118 529.716 434.16 529.992 434.16C530.346 434.16 530.656 434.092 530.922 433.957C531.188 433.822 531.409 433.611 531.586 433.324C531.768 433.033 531.904 432.66 531.992 432.207C532.081 431.749 532.125 431.202 532.125 430.566Z" fill="#6A80E4"/>
<path d="M619.343 434.004V435.191H611.898V434.152L615.624 430.004C616.083 429.493 616.437 429.061 616.687 428.707C616.942 428.348 617.119 428.027 617.218 427.746C617.322 427.46 617.374 427.168 617.374 426.871C617.374 426.496 617.296 426.158 617.14 425.855C616.989 425.548 616.765 425.303 616.468 425.121C616.171 424.939 615.812 424.848 615.39 424.848C614.885 424.848 614.463 424.947 614.124 425.145C613.791 425.337 613.541 425.608 613.374 425.957C613.208 426.306 613.124 426.707 613.124 427.16H611.679C611.679 426.52 611.82 425.934 612.101 425.402C612.382 424.871 612.799 424.449 613.351 424.137C613.903 423.819 614.583 423.66 615.39 423.66C616.109 423.66 616.723 423.788 617.234 424.043C617.744 424.293 618.135 424.647 618.406 425.105C618.682 425.559 618.82 426.09 618.82 426.699C618.82 427.033 618.762 427.371 618.648 427.715C618.539 428.053 618.385 428.392 618.187 428.73C617.994 429.069 617.768 429.402 617.507 429.73C617.252 430.059 616.979 430.382 616.687 430.699L613.64 434.004H619.343ZM628.031 428.598V430.332C628.031 431.264 627.947 432.051 627.781 432.691C627.614 433.332 627.374 433.848 627.062 434.238C626.749 434.629 626.372 434.913 625.929 435.09C625.492 435.262 624.997 435.348 624.445 435.348C624.007 435.348 623.604 435.293 623.234 435.184C622.864 435.074 622.531 434.9 622.234 434.66C621.942 434.415 621.692 434.098 621.484 433.707C621.276 433.316 621.117 432.842 621.007 432.285C620.898 431.728 620.843 431.077 620.843 430.332V428.598C620.843 427.665 620.927 426.884 621.093 426.254C621.265 425.624 621.507 425.118 621.82 424.738C622.132 424.353 622.507 424.077 622.945 423.91C623.387 423.743 623.882 423.66 624.429 423.66C624.872 423.66 625.278 423.715 625.648 423.824C626.023 423.928 626.356 424.098 626.648 424.332C626.94 424.561 627.187 424.868 627.39 425.254C627.598 425.634 627.757 426.1 627.867 426.652C627.976 427.204 628.031 427.853 628.031 428.598ZM626.578 430.566V428.355C626.578 427.845 626.546 427.397 626.484 427.012C626.427 426.621 626.341 426.288 626.226 426.012C626.111 425.736 625.966 425.512 625.789 425.34C625.617 425.168 625.416 425.043 625.187 424.965C624.963 424.882 624.71 424.84 624.429 424.84C624.085 424.84 623.781 424.905 623.515 425.035C623.249 425.16 623.026 425.361 622.843 425.637C622.666 425.913 622.531 426.275 622.437 426.723C622.343 427.171 622.296 427.715 622.296 428.355V430.566C622.296 431.077 622.325 431.527 622.382 431.918C622.445 432.309 622.536 432.647 622.656 432.934C622.776 433.215 622.921 433.447 623.093 433.629C623.265 433.811 623.463 433.947 623.687 434.035C623.916 434.118 624.169 434.16 624.445 434.16C624.799 434.16 625.109 434.092 625.374 433.957C625.64 433.822 625.861 433.611 626.039 433.324C626.221 433.033 626.356 432.66 626.445 432.207C626.533 431.749 626.578 431.202 626.578 430.566ZM637.343 434.004V435.191H629.898V434.152L633.624 430.004C634.083 429.493 634.437 429.061 634.687 428.707C634.942 428.348 635.119 428.027 635.218 427.746C635.322 427.46 635.374 427.168 635.374 426.871C635.374 426.496 635.296 426.158 635.14 425.855C634.989 425.548 634.765 425.303 634.468 425.121C634.171 424.939 633.812 424.848 633.39 424.848C632.885 424.848 632.463 424.947 632.124 425.145C631.791 425.337 631.541 425.608 631.374 425.957C631.208 426.306 631.124 426.707 631.124 427.16H629.679C629.679 426.52 629.82 425.934 630.101 425.402C630.382 424.871 630.799 424.449 631.351 424.137C631.903 423.819 632.583 423.66 633.39 423.66C634.109 423.66 634.723 423.788 635.234 424.043C635.744 424.293 636.135 424.647 636.406 425.105C636.682 425.559 636.82 426.09 636.82 426.699C636.82 427.033 636.762 427.371 636.648 427.715C636.539 428.053 636.385 428.392 636.187 428.73C635.994 429.069 635.768 429.402 635.507 429.73C635.252 430.059 634.979 430.382 634.687 430.699L631.64 434.004H637.343ZM640.718 429.777L639.562 429.48L640.132 423.816H645.968V425.152H641.359L641.015 428.246C641.223 428.126 641.486 428.014 641.804 427.91C642.127 427.806 642.497 427.754 642.914 427.754C643.44 427.754 643.911 427.845 644.328 428.027C644.744 428.204 645.098 428.46 645.39 428.793C645.687 429.126 645.914 429.527 646.07 429.996C646.226 430.465 646.304 430.988 646.304 431.566C646.304 432.113 646.229 432.616 646.078 433.074C645.932 433.533 645.71 433.934 645.414 434.277C645.117 434.616 644.742 434.879 644.289 435.066C643.841 435.254 643.312 435.348 642.703 435.348C642.244 435.348 641.809 435.285 641.398 435.16C640.992 435.03 640.627 434.835 640.304 434.574C639.986 434.309 639.726 433.98 639.523 433.59C639.325 433.194 639.2 432.73 639.148 432.199H640.523C640.585 432.626 640.71 432.986 640.898 433.277C641.085 433.569 641.33 433.79 641.632 433.941C641.94 434.087 642.296 434.16 642.703 434.16C643.046 434.16 643.351 434.1 643.617 433.98C643.882 433.861 644.106 433.689 644.289 433.465C644.471 433.241 644.609 432.97 644.703 432.652C644.802 432.335 644.851 431.978 644.851 431.582C644.851 431.223 644.802 430.889 644.703 430.582C644.604 430.275 644.455 430.007 644.257 429.777C644.065 429.548 643.828 429.371 643.546 429.246C643.265 429.116 642.942 429.051 642.578 429.051C642.093 429.051 641.726 429.116 641.476 429.246C641.231 429.376 640.979 429.553 640.718 429.777Z" fill="#6A80E4"/>
<path d="M77.9513 0.465485C77.3655 -0.1203 76.4158 -0.1203 75.83 0.465485L66.284 10.0114C65.6983 10.5972 65.6983 11.547 66.284 12.1328C66.8698 12.7185 67.8196 12.7185 68.4054 12.1328L76.8906 3.64746L85.3759 12.1328C85.9617 12.7185 86.9115 12.7185 87.4972 12.1328C88.083 11.547 88.083 10.5972 87.4972 10.0114L77.9513 0.465485ZM78.3906 399.695L78.3906 1.52615L75.3906 1.52615L75.3906 399.695L78.3906 399.695Z" fill="#C9D0F1"/>
<path d="M649.877 400.756C650.463 400.17 650.463 399.22 649.877 398.635L640.331 389.089C639.746 388.503 638.796 388.503 638.21 389.089C637.624 389.674 637.624 390.624 638.21 391.21L646.695 399.695L638.21 408.181C637.624 408.766 637.624 409.716 638.21 410.302C638.796 410.888 639.746 410.888 640.331 410.302L649.877 400.756ZM76.8906 401.195H648.817V398.195H76.8906V401.195Z" fill="#C9D0F1"/>
<path d="M90.7109 386.907C101.239 385.919 111.701 381.034 121.387 376.259C140.1 367.034 158.724 356.407 175.906 343.646C194.187 330.07 210.901 313.987 228.635 299.494C244.771 286.306 262.647 276.089 281.505 269.612C295.223 264.9 312.541 260.47 326.741 264.818C338.403 268.389 345.756 282.098 355.767 289.18C366.125 296.507 375.2 295.049 382.956 284.218C394.098 268.661 402.062 251.438 415.517 238.114C425.489 228.24 436.647 222.808 449.397 219.996C461.488 217.329 471.777 219.389 483.607 221.892C524.055 230.446 554.231 186.255 572.383 149.418C579.119 135.749 583.303 120.233 590.478 106.938C597.096 94.6741 605.312 83.8898 611.682 71.3703C619.783 55.4522 628.563 40.9206 639.201 27.2175C642.823 22.5526 646.158 18.1105 648.814 12.6113" stroke="#6A80E4" stroke-width="3" stroke-linecap="round"/>
</svg>
