<svg width="304" height="274" viewBox="0 0 304 274" fill="none" xmlns="http://www.w3.org/2000/svg">
<rect x="20" y="5" width="264" height="264" rx="132" fill="#F4F6FF"/>
<path d="M71.2127 121.175V122.055H74.5095V139.045C74.5095 144.139 73.0773 145.579 69.8615 145.579C67.8618 145.579 67.5105 144.059 67.5105 143.286C67.5105 141.419 67.4024 140.299 65.6999 140.299C63.9704 140.299 63.7812 142.005 63.7812 142.539C63.7812 144.886 64.8352 146.673 69.5372 146.673C75.1581 146.673 78.1577 144.806 78.1577 138.592V122.029H81.5626V121.148H71.2127V121.175ZM81.5356 143.312C81.1303 143.712 80.9411 144.166 80.9411 144.726C80.9411 145.286 81.1303 145.739 81.5356 146.113C81.941 146.513 82.4274 146.7 82.9678 146.7C83.5353 146.7 84.0218 146.513 84.4271 146.113C84.8325 145.739 85.0216 145.286 85.0216 144.726C85.0216 144.166 84.8325 143.686 84.4271 143.312C84.0218 142.912 83.5624 142.726 82.9678 142.726C82.4004 142.726 81.9139 142.912 81.5356 143.312ZM104.56 143.312C104.154 143.712 103.965 144.166 103.965 144.726C103.965 145.286 104.154 145.739 104.56 146.113C104.992 146.513 105.451 146.7 105.992 146.7C106.559 146.7 107.046 146.513 107.451 146.113C107.856 145.739 108.046 145.286 108.046 144.726C108.046 144.166 107.856 143.686 107.451 143.312C107.046 142.912 106.559 142.726 105.992 142.726C105.451 142.726 104.965 142.912 104.56 143.312ZM88.6157 121.175V122.055H91.5883V141.445C91.5883 142.966 91.4802 143.366 91.3181 143.819C91.1289 144.299 90.7236 144.699 90.102 144.966C89.6426 145.153 88.94 145.259 88.0212 145.286V146.086H98.9657V145.286C98.0469 145.259 97.3443 145.153 96.8579 144.993C96.2093 144.726 95.7769 144.353 95.5878 143.846C95.3986 143.419 95.3175 143.019 95.3175 142.272V135.631H98.0199C105.884 135.631 108.1 132.564 108.1 128.403C108.1 124.189 106.748 121.228 98.7765 121.228L88.6157 121.175ZM95.3175 122.162L97.2092 122.135C103.262 122.135 104.587 124.589 104.587 128.59C104.587 132.59 102.208 134.644 97.3983 134.644H95.3175V122.162ZM136.474 121.228C136.393 121.468 128.772 140.192 128.772 140.192L128.61 140.299L128.421 140.192C128.421 140.192 120.314 121.468 120.206 121.228H113.045V122.029H116.153V141.285L116.099 143.046C116.044 143.499 115.909 143.926 115.666 144.246C115.423 144.593 115.018 144.886 114.531 145.046C114.207 145.153 113.693 145.233 113.072 145.233V146.033H120.179V145.233C119.585 145.206 119.314 145.153 118.963 145.019C118.45 144.859 118.044 144.593 117.801 144.219C117.558 143.872 117.423 143.472 117.369 142.992L117.288 141.232V124.589H117.693C117.693 124.589 126.881 145.739 126.962 145.98H127.719L136.42 124.829H136.636V141.979C136.636 142.726 136.555 143.286 136.42 143.712C136.258 144.219 135.88 144.619 135.339 144.886C134.934 145.073 134.339 145.153 133.529 145.206V146.006H143.446V145.206C142.662 145.179 142.041 145.073 141.636 144.886C141.068 144.619 140.69 144.219 140.528 143.686C140.393 143.232 140.311 142.699 140.311 142.005V122.029L142.96 122.002V121.202H136.474V121.228ZM145.23 137.338C145.23 146.193 152.202 146.78 153.715 146.78C156.688 146.78 162.363 144.939 162.363 137.178C162.363 131.124 158.741 127.843 153.85 127.843C148.554 127.816 145.23 131.284 145.23 137.338ZM149.175 137.418C149.175 132.564 149.472 128.91 153.769 128.91C158.39 128.91 158.417 132.67 158.417 137.098C158.417 143.446 157.309 145.659 153.769 145.659C149.797 145.659 149.175 143.712 149.175 137.418ZM171.172 131.817H170.929C170.902 131.817 170.47 129.097 170.307 128.27C169.064 128.27 164.173 128.27 164.173 128.27V129.203H167.497C167.497 129.203 167.47 131.977 167.47 132.991V141.499C167.47 142.726 167.335 143.552 167.065 144.086C166.713 144.699 165.957 144.993 164.714 144.993H164.173V146.086H174.442V144.993H173.902C172.55 144.993 171.983 144.699 171.605 144.139C171.28 143.632 171.118 142.779 171.118 141.499V135.124C171.118 132.964 172.767 130.537 174.712 130.537C176.766 130.537 176.712 133.657 179.036 132.404C180.306 131.71 180.09 128.136 176.144 128.136C173.037 128.083 172.037 129.95 171.172 131.817ZM203.222 129.203C202.06 130.083 201.6 130.91 201.6 132.057C201.6 132.59 201.736 132.991 202.06 133.231C202.357 133.497 202.735 133.631 203.168 133.631C204.195 133.631 204.762 133.124 204.978 131.79C205.141 130.803 205.357 130.243 205.843 129.737C206.357 129.203 207.194 128.91 208.302 128.91C209.599 128.91 210.491 129.257 211.005 129.923C211.464 130.563 211.734 131.444 211.734 132.51V135.498C208.437 135.791 200.682 136.404 201.033 142.246C201.168 144.539 203.195 146.54 205.843 146.54C208.762 146.54 210.599 144.913 211.842 143.579C212.032 144.833 213.221 146.3 215.328 146.3C217.706 146.3 219.139 145.153 219.301 142.246H218.679C218.517 143.499 217.733 144.193 217.085 144.193C215.977 144.193 215.626 143.579 215.545 142.592L215.491 140.325V132.884C215.491 131.284 215.22 130.19 214.274 129.257C213.329 128.296 211.491 127.816 208.843 127.816C206.303 127.816 204.411 128.296 203.222 129.203ZM204.6 141.579C204.6 138.271 209.194 136.618 211.707 136.618V142.352L211.653 142.486L211.572 142.566C209.816 144.139 208.464 144.699 207.492 144.699C204.978 144.699 204.6 142.619 204.6 141.579ZM226.516 131.47H226.192L225.543 128.243H219.976V129.177C221.03 129.23 222.76 129.23 222.76 129.23V141.472C222.76 142.432 222.679 143.099 222.544 143.552C222.381 144.086 222.03 144.459 221.517 144.699C221.192 144.833 220.652 144.913 219.976 144.939V146.06H228.84V144.939C227.948 144.859 227.354 144.619 227.029 144.193C226.678 143.712 226.516 142.886 226.516 141.685V136.991C226.516 135.018 226.516 133.124 227.192 131.95C227.921 130.67 229.272 129.977 230.759 129.977C232.11 129.977 232.812 130.403 233.272 131.257C233.623 131.95 233.866 134.004 233.866 135.391L233.812 141.205C233.812 142.166 233.947 142.886 233.866 143.339C233.758 143.872 233.515 144.299 233.083 144.566C232.785 144.779 232.272 144.886 231.65 144.939V146.086H240.19V144.966C239.109 144.886 238.406 144.646 238.082 144.139C237.731 143.632 237.433 142.779 237.433 141.499L237.488 133.444C237.488 132.27 237.325 131.284 236.893 130.457C236.434 129.657 235.812 129.07 235.028 128.67C234.245 128.27 233.326 128.083 232.326 128.083C228.759 128.03 227.3 130.217 226.516 131.47ZM197.952 127.096C197.412 127.256 197.061 127.736 196.898 128.51C196.763 129.23 196.493 129.657 196.115 129.763C195.736 129.87 195.331 129.843 194.845 129.683C193.926 128.83 192.169 127.816 189.062 127.816C184.062 127.816 181.873 131.337 181.873 134.537C181.873 138.298 183.333 140.112 186.548 140.779C186.738 140.832 186.738 141.019 186.576 141.072C183.846 141.632 181.414 142.406 181.414 144.993C181.414 146.54 182.306 147.393 183.468 147.847C184.738 148.353 186.521 148.62 188.791 148.673C190.764 148.7 192.142 148.753 193.061 148.86C194.034 148.967 194.818 149.233 195.385 149.66C195.98 150.114 196.277 150.78 196.277 151.634C196.277 152.834 195.628 153.794 194.358 154.488C193.169 155.154 191.521 155.501 189.494 155.501C187.738 155.501 186.332 155.315 185.035 154.514C184.089 153.928 183.9 152.781 184.089 151.954C184.279 151.127 183.954 150.247 182.981 150.087C182.441 150.007 181.765 150.3 181.441 150.78C181.144 151.234 181.036 151.767 181.036 152.407C181.036 154.514 182.684 155.501 183.954 155.875C185.873 156.461 187.17 156.595 188.927 156.595C191.278 156.595 193.196 156.248 194.547 155.555C195.926 154.861 196.871 154.034 197.385 153.074C197.925 152.114 198.169 151.127 198.169 150.167C198.169 148.887 197.871 147.847 197.331 147.073C195.547 144.646 193.007 144.966 187.305 144.699C184.576 144.699 184.035 144.219 184.035 143.366C184.035 142.139 185.062 141.659 189.035 141.072C192.953 140.485 196.574 139.045 196.574 134.351C196.574 132.991 196.25 131.844 195.872 131.017C196.682 131.204 197.439 131.204 198.114 130.964C198.898 130.723 199.412 130.323 199.709 129.79C200.006 129.23 200.06 128.723 199.898 128.216C199.628 127.39 199.195 126.989 198.547 126.989C198.358 127.016 198.169 127.043 197.952 127.096ZM185.468 134.537C185.468 131.23 186.63 128.776 189.143 128.776C192.061 128.776 192.899 131.017 192.899 134.484C192.899 139.418 191.332 140.085 189.143 140.085C186.792 140.058 185.468 139.232 185.468 134.537Z" fill="black"/>
<rect x="20" y="5" width="264" height="264" rx="132" stroke="#FBFCFE" stroke-width="10"/>
</svg>
