<svg width="86" height="50" viewBox="0 0 86 50" fill="none" xmlns="http://www.w3.org/2000/svg">
<g clip-path="url(#clip0_5407_90664)">
<g clip-path="url(#clip1_5407_90664)">
<g clip-path="url(#clip2_5407_90664)">
<path d="M16.8504 23.3808L6.16195 12.6924H4.51758V31.6026H6.16195V15.1589L15.7541 24.7511L16.8504 23.3808Z" fill="white"/>
<path d="M14.6582 23.3808L25.3466 12.6924H26.991V31.6026H25.3466V15.1589L15.7545 24.7511L14.6582 23.3808Z" fill="white"/>
<path d="M14.9316 23.3797V36.2606H16.576V21.7354L14.9316 23.3797Z" fill="white"/>
<path d="M2.8727 33.793H1.22852V35.4371H2.8727V33.793Z" fill="white"/>
<path d="M30.2789 7.4834H28.6348V9.12758H30.2789V7.4834Z" fill="white"/>
<path d="M24.7975 41.4688H23.1533V43.1129H24.7975V41.4688Z" fill="white"/>
<path d="M43.1598 14.611C43.1598 12.9666 41.7895 12.4185 40.1451 12.4185C38.5007 12.4185 37.1304 12.9666 37.1304 14.8851V21.1885C37.1304 22.8329 38.5007 23.655 40.1451 23.655C41.7895 23.655 43.1598 23.1069 43.1598 21.1885H44.256C44.256 23.1069 42.6117 24.4772 40.1451 24.4772C37.6786 24.4772 36.0342 23.1069 36.0342 21.1885V14.611C36.0342 12.6926 37.6786 11.3223 40.1451 11.3223C42.6117 11.3223 44.256 12.6926 44.256 14.611H43.1598Z" fill="white"/>
<path d="M46.9971 24.2025V11.5957H48.0933V23.3804H54.6708V24.4766H46.9971V24.2025Z" fill="white"/>
<path d="M64.8107 11.5957V21.1879C64.8107 23.1063 63.1663 24.4766 60.6998 24.4766C58.2332 24.4766 56.5889 23.1063 56.5889 21.1879V11.5957H57.6851V21.1879C57.6851 22.8322 59.0554 23.6544 60.6998 23.6544C62.3442 23.6544 63.7145 23.1063 63.7145 21.1879V11.5957H64.8107Z" fill="white"/>
<path d="M72.2092 24.2025H67.8242V11.5957H72.2092C75.4979 11.5957 76.0461 13.7882 76.0461 14.8844V15.1585C76.0461 15.9807 75.772 17.351 74.1276 17.8991C76.0461 18.4472 76.3201 20.0916 76.3201 20.6397V21.1879C76.3201 22.01 75.4979 24.2025 72.2092 24.2025ZM74.9498 14.6104C74.9498 12.6919 73.3055 12.4179 72.2092 12.4179H69.1945V17.0769H72.4833C73.3055 17.0769 74.9498 16.8029 74.9498 14.6104ZM74.9498 20.3657C74.9498 18.4472 73.3055 17.8991 72.2092 17.8991H68.9205V23.1063H72.2092C73.3055 23.1063 74.9498 22.8322 74.9498 20.6397V20.3657Z" fill="white"/>
<path d="M79.335 24.2025V11.5957H87.0087V12.6919H80.4312V17.0769H86.4606V18.1732H80.4312V23.3804H87.0087V24.4766H79.335V24.2025Z" fill="white"/>
<path d="M42.8851 40.1L37.4039 28.8635V40.1H36.3076V27.4932H37.952L43.4332 38.7297V27.4932H44.5295V40.1H42.8851Z" fill="white"/>
<path d="M48.9146 28.5894V33.2485H54.944V34.3447H48.9146V40.6481H47.8184V27.4932H55.4921V28.5894H48.9146Z" fill="white"/>
<path d="M62.0708 28.5894V40.3741H60.9746V28.5894H57.1377V27.4932H65.6336V28.5894H62.0708Z" fill="white"/>
</g>
</g>
</g>
<defs>
<clipPath id="clip0_5407_90664">
<rect width="85" height="49" fill="white" transform="translate(0.5 0.0117188)"/>
</clipPath>
<clipPath id="clip1_5407_90664">
<rect width="87" height="49" fill="white" transform="translate(0.5 1.92188)"/>
</clipPath>
<clipPath id="clip2_5407_90664">
<rect width="85.7813" height="35.9021" fill="white" transform="translate(1.22852 7.4834)"/>
</clipPath>
</defs>
</svg>
