<svg width="105" height="105" viewBox="0 0 105 105" fill="none" xmlns="http://www.w3.org/2000/svg">
<rect x="0.5" y="0.155273" width="104" height="104" rx="8" fill="#2A2842"/>
<path d="M63.0003 30.7471C58.9403 30.7471 55.0437 32.6371 52.5003 35.6237C49.957 32.6371 46.0603 30.7471 42.0003 30.7471C34.8137 30.7471 29.167 36.3937 29.167 43.5804C29.167 52.4004 37.1003 59.5871 49.117 70.5071L52.5003 73.5637L55.8837 70.4837C67.9003 59.5871 75.8337 52.4004 75.8337 43.5804C75.8337 36.3937 70.187 30.7471 63.0003 30.7471ZM52.7337 67.0304L52.5003 67.2637L52.267 67.0304C41.1603 56.9737 33.8337 50.3237 33.8337 43.5804C33.8337 38.9137 37.3337 35.4137 42.0003 35.4137C45.5937 35.4137 49.0937 37.7237 50.3303 40.9204H54.6937C55.907 37.7237 59.407 35.4137 63.0003 35.4137C67.667 35.4137 71.167 38.9137 71.167 43.5804C71.167 50.3237 63.8403 56.9737 52.7337 67.0304Z" fill="#7B18C9"/>
</svg>
