<svg width="105" height="105" viewBox="0 0 105 105" fill="none" xmlns="http://www.w3.org/2000/svg">
<rect x="0.796875" y="0.155273" width="104" height="104" rx="8" fill="#2A2842"/>
<path d="M53.7066 49.5886C48.4099 48.2119 46.7066 46.7886 46.7066 44.5719C46.7066 42.0286 49.0633 40.2553 53.0066 40.2553C57.1599 40.2553 58.6999 42.2386 58.8399 45.1553H63.9966C63.8333 41.1419 61.3833 37.4553 56.5066 36.2653V31.1553H49.5066V36.1953C44.9799 37.1753 41.3399 40.1153 41.3399 44.6186C41.3399 50.0086 45.7966 52.6919 52.3066 54.2553C58.1399 55.6553 59.3066 57.7086 59.3066 59.8786C59.3066 61.4886 58.1633 64.0553 53.0066 64.0553C48.1999 64.0553 46.3099 61.9086 46.0533 59.1553H40.9199C41.1999 64.2653 45.0266 67.1353 49.5066 68.0919V73.1553H56.5066V68.1386C61.0566 67.2753 64.6733 64.6386 64.6733 59.8553C64.6733 53.2286 59.0033 50.9653 53.7066 49.5886Z" fill="#7B18C9"/>
</svg>
