<svg width="274" height="274" viewBox="0 0 274 274" fill="none" xmlns="http://www.w3.org/2000/svg">
<rect x="5" y="5" width="264" height="264" rx="132" fill="#F4F6FF"/>
<path d="M186.395 135.105V146.067H189.91V138.769H202.705V146.067H206.218V135.124L186.395 135.105ZM189.519 131.559H203.036C204.913 131.186 206.31 129.529 206.703 127.926H185.852C186.241 129.53 187.658 131.186 189.519 131.559Z" fill="#E31937"/>
<path d="M175.749 146.074C177.522 145.323 178.475 144.023 178.841 142.502H163.073L163.084 127.936L159.55 127.946V146.074H175.749ZM133.266 131.51H145.75C147.632 130.964 149.212 129.53 149.597 127.941H129.766V138.654H145.997V142.413L133.265 142.424C131.27 142.98 129.578 144.32 128.734 146.089L129.766 146.07H149.484V135.092H133.265V131.51" fill="#E31937"/>
<path d="M102.45 131.545H115.963C117.843 131.17 119.24 129.515 119.632 127.91H98.7812C99.1705 129.515 100.588 131.17 102.45 131.545ZM102.45 138.71H115.963C117.843 138.339 119.24 136.682 119.632 135.077H98.7812C99.1705 136.683 100.588 138.339 102.45 138.71ZM102.45 146.072H115.963C117.843 145.699 119.24 144.042 119.632 142.439H98.7812C99.1705 144.043 100.588 145.699 102.45 146.072Z" fill="#E31937"/>
<path d="M67.293 127.955C67.6992 129.539 69.0714 131.158 70.953 131.564H76.641L76.9312 131.679V146.032H80.4831V131.679L80.8063 131.564H86.4994C88.4024 131.074 89.7441 129.539 90.1434 127.955V127.92H67.293V127.955Z" fill="#E31937"/>
<rect x="5" y="5" width="264" height="264" rx="132" stroke="#FBFCFE" stroke-width="10"/>
</svg>
